<?xml version="1.0" encoding="UTF-8" standalone="no"?>
<svg width="166px" height="198px" viewBox="0 0 166 198" version="1.1" xmlns="http://www.w3.org/2000/svg" xmlns:xlink="http://www.w3.org/1999/xlink" xmlns:sketch="http://www.bohemiancoding.com/sketch/ns">
    <!-- Generator: Sketch 3.1.1 (8761) - http://www.bohemiancoding.com/sketch -->
    <title>digit14</title>
    <desc>Created with Sketch.</desc>
    <defs/>
    <g id="Page-1" stroke="none" stroke-width="1" fill="none" fill-rule="evenodd" sketch:type="MSPage">
        <g id="digit14" sketch:type="MSLayerGroup">
            <g id="black" fill="#231F20" sketch:type="MSShapeGroup">
                <path d="M35.0916812,117.462783 C35.1691376,117.48825 35.129869,117.488609 35.2541594,117.497576 C35.1918341,117.485739 35.136714,117.473902 35.0916812,117.462783 L35.0916812,117.462783 Z M103.741048,128.419141 C103.701419,128.44425 103.670797,128.463261 103.644138,128.48012 C103.66107,128.471152 103.684487,128.45788 103.741048,128.419141 L103.741048,128.419141 Z M57.0719869,80.5038587 C57.5374454,79.8162391 57.6275109,79.666663 57.6275109,79.666663 C57.6275109,79.666663 58.3631659,78.5159674 58.2731004,78.2469457 C58.1830349,77.9779239 57.2593231,78.6759457 56.4267576,79.6817283 C55.5823035,80.7018587 55.1208079,81.2061848 54.9406769,80.8026522 C54.7605459,80.3991196 55.5711354,78.1346739 55.3459716,76.2741196 C55.2328493,75.3375652 55.0080459,74.8615761 54.1073908,74.8615761 C53.2067358,74.8615761 50.6773362,77.0062174 50.4521725,78.7548587 C50.4521725,78.7548587 50.7522707,78.9044348 51.3077948,78.4560652 C51.8633188,78.0076957 52.0157096,77.62425 52.4037118,77.1260217 C52.8691703,76.5284348 54.0079585,75.1722065 54.2201528,76.1844457 C54.5804148,77.9033152 53.7399236,80.3693478 53.8598908,81.4902717 C53.9506769,82.3393043 54.3080568,82.4759674 54.7756769,82.4616196 C55.5034061,82.4390217 56.6068886,81.1914783 57.0719869,80.5038587 L57.0719869,80.5038587 Z M97.7217904,110.051054 C99.1628384,107.226326 100.603886,103.355283 101.32441,100.934087 C101.995939,98.6771739 102.825622,95.6135543 103.005753,90.3227935 C103.114552,87.1332717 102.262533,79.6946413 101.954869,77.9775652 C101.279378,74.2112609 99.2529039,68.0237609 96.9562336,64.0332717 C95.6272271,61.7239891 93.2185153,58.3389783 92.6781223,57.6664239 C92.1377293,56.9938696 87.3192249,51.5237609 84.0318341,49.281913 C81.3929148,47.482337 74.7100546,43.3634348 67.2346179,41.5699565 C59.7591812,39.7764783 54.3102183,39.4177826 48.7261572,40.4490326 C46.2583624,40.9049348 43.2771943,42.1976739 40.5752293,44.6637065 C38.4287882,46.6225435 37.1527402,49.3389457 37.1527402,52.4205 C37.1527402,55.51425 38.29369,57.8009348 40.5002948,59.594413 C41.7345524,60.5976848 47.6453712,63.4503913 53.0493013,64.9748478 C58.4532314,66.4993043 62.2060808,67.4559457 66.0788974,68.2630109 C67.8254476,68.627087 71.3325983,68.3824565 71.6478275,68.0685978 C71.9630568,67.7547391 65.5233734,66.7683261 63.9021943,66.2302826 C62.2810153,65.6922391 54.4903493,63.8539239 52.7340721,63.1365326 C50.9777948,62.4191413 45.7539956,61.0291957 41.9262118,58.608 C40.2992686,57.5789022 38.4356332,54.8998043 38.5487555,52.6446848 C38.6838537,49.9544674 39.5567686,47.0701957 42.7368013,44.6188696 C45.5288319,42.4666957 48.0056332,41.5699565 53.0042686,41.3457717 C58.0029039,41.121587 59.7908843,41.2779783 65.2081441,42.4218587 C71.1524672,43.6772935 78.698155,47.3388587 81.870262,49.4164239 C85.2927511,51.6582717 89.9761572,55.469413 91.7774672,57.8009348 C93.2556223,59.7138587 95.3800873,63.4503913 96.5509389,65.871587 C97.3997162,67.6274022 99.7482642,74.2560978 100.693952,78.8743043 C101.119421,80.9507935 101.774738,88.559087 101.504541,92.594413 C101.302074,95.6131957 100.288657,99.9476739 98.9376747,103.624304 C97.8284279,106.643087 94.7348581,112.637967 94.5413974,113.242011 C94.3724345,113.768935 94.3371288,113.982 94.3223581,114.213717 C94.7045961,114.188967 96.691441,112.071228 97.7217904,110.051054 L97.7217904,110.051054 Z M48.9963537,94.4327283 C49.1076747,94.4065435 49.2024236,94.3756957 49.3346397,94.3365978 L48.9963537,94.4327283 L48.9963537,94.4327283 Z M103.463286,128.598489 C103.490306,128.57912 103.512642,128.563337 103.531015,128.550424 C103.506517,128.566207 103.506157,128.567641 103.463286,128.598489 L103.463286,128.598489 Z M72.098155,83.2292283 C72.0963537,83.2285109 72.0938319,83.2277935 72.0916703,83.2270761 C72.1334607,83.3174674 71.9169432,83.5954565 72.1431878,83.7618913 C72.4883188,84.0158478 73.5543341,85.0323913 74.9053166,86.9901522 C76.2562991,88.947913 76.7516594,89.9343261 77.4721834,91.6682609 C78.1927074,93.4021957 78.7478712,94.5528913 79.2432314,96.92925 C79.7385917,99.3056087 80.2789847,102.384293 80.3391485,104.49163 C80.3766157,105.805174 80.3733734,107.57175 80.3654476,108.715989 C80.3665284,108.661109 80.3672489,108.629543 80.3672489,108.629543 C80.3672489,108.629543 80.6994105,108.915424 80.9245742,108.780913 C81.149738,108.646402 81.7128275,104.865033 81.51,102.757696 C81.0809279,98.2944457 80.511714,95.8380978 79.7688537,93.551413 C79.1528057,91.6560652 76.7062664,87.1099565 75.2655786,85.540663 C73.8241703,83.9710109 72.5315502,82.9038913 72.098155,83.2292283 L72.098155,83.2292283 Z M75.9259389,120.415924 C75.7458079,120.729783 76.0837336,121.20075 76.3088974,121.20075 C76.5340611,121.20075 77.5813428,120.243391 78.6282642,119.967554 C79.7767795,119.664815 81.4429913,119.922717 81.4429913,119.922717 C81.4429913,119.922717 81.5780895,120.886891 81.375262,121.3575 C81.1724345,121.828109 80.541976,122.287957 79.754083,122.220522 C78.96619,122.153087 78.1102074,121.536848 77.8176747,121.872946 C77.5251419,122.209043 78.2643996,122.815957 78.8195633,123.027587 C79.7313865,123.375163 81.0712009,123.375163 81.7243559,122.949033 C82.3775109,122.522902 82.5126092,122.09713 82.7039083,121.715837 C82.8501747,121.558728 83.1304585,121.980554 84.3027511,122.052293 C85.4062336,122.119728 85.8410699,121.764978 86.0590284,121.491652 C86.453155,120.998446 86.4419869,120.729424 86.4643231,120.258457 C86.8923144,120.269576 89.4645852,120.799728 89.226452,121.528957 C88.8359279,122.724489 89.2340175,123.497837 89.864476,123.408163 C90.4949345,123.318489 91.2756223,121.928543 90.7575655,120.931011 C90.4196397,120.258457 88.8960917,119.137533 85.6537336,118.659391 C83.8221616,118.389293 80.8006441,118.262315 79.3491485,118.599489 C77.5471179,119.018446 76.1060699,120.102065 75.9259389,120.415924 L75.9259389,120.415924 Z M52.4188428,94.8362609 C52.4710808,94.821913 53.4697271,98.5727935 56.8770852,99.4544674 C59.819345,100.215978 62.8228493,99.8608696 65.1180786,98.1990326 C66.6041594,97.1229457 67.6399127,95.733 68.0902402,94.2085435 C68.3921397,93.1859022 68.7657314,90.4422391 67.9551419,88.6935978 C67.1445524,86.9449565 65.5684061,85.614913 64.3525218,85.2411522 C63.3196507,84.9237065 61.7107205,84.6805109 59.1737555,85.2859891 C57.7229803,85.6321304 56.0556878,86.5905652 55.2843668,87.4388804 L55.2840066,87.4435435 C55.2840066,87.4435435 54.3775873,88.3790217 54.3775873,88.8951848 C54.3775873,89.5229022 55.2332096,88.4690543 56.0214629,87.9310109 C57.2629258,87.083413 58.9485917,85.935587 61.2902948,85.8685109 C63.3852183,85.80825 64.387107,85.8957717 65.8836354,87.4826413 C67.6175764,89.3209565 67.5581332,91.6194783 67.2796507,92.7285652 C66.6041594,95.4187826 65.2982096,96.5845435 64.1273581,97.4364457 C63.1189847,98.1699783 61.4895197,98.9766848 59.263821,98.8263913 C56.6068886,98.6470435 55.3611026,97.7653696 54.8055786,96.9880761 C53.9218559,95.7516522 53.2294323,94.2081848 53.0943341,94.0736739 C52.9592358,93.939163 52.3961463,94.1411087 51.3153603,94.0962717 C49.9982424,93.9897391 49.5216157,94.2831522 49.5216157,94.2831522 C49.5140502,94.6870435 51.5480895,95.0751522 52.4188428,94.8362609 L52.4188428,94.8362609 Z M164.707828,77.5069565 C164.00964,74.2413913 162.328657,71.3718261 160.384683,69.0327717 C159.149705,67.5466957 155.971474,65.67 155.701277,65.5354891 C156.174301,64.683587 156.917162,62.6659239 157.592653,60.8724457 C158.268144,59.0789674 158.808537,55.312663 158.718472,51.187663 C158.628406,47.062663 155.903745,40.4938696 153.877271,37.5346304 C151.850797,34.5753913 146.626998,32.4006196 144.802991,31.8177391 C144.239902,30.7638913 143.384279,28.1185109 140.795076,24.1954565 C138.632063,20.9180543 135.233352,17.9405217 129.762052,15.407413 C124.470884,12.9578804 117.848188,13.7642283 115.73417,13.9726304 C113.459836,14.1968152 109.541987,14.8245326 106.749956,15.9902935 C105.534072,12.1565543 100.482838,7.73276087 98.2387664,5.99165217 C96.7108952,4.80616304 93.3374017,2.38425 89.2322162,1.10442391 C84.0307533,-0.51723913 77.5161354,-0.27798913 72.1648035,1.3286087 C67.5210262,2.7228587 62.5389629,6.52969565 61.8634716,7.41531522 C61.221845,7.16853261 58.0468559,6.10392391 54.7821616,5.4536087 C51.8579148,4.87108696 44.6270961,4.75845652 40.7319432,5.94681522 C38.9457642,6.49167391 34.0220633,8.27833696 31.4325,10.5876196 C29.3343341,12.4585761 26.5239301,15.4748478 25.5332096,18.7927826 C24.8876201,20.9539239 24.6775873,22.8281087 24.6098581,24.2628913 C24.3396616,24.7112609 22.3582205,24.0835435 18.3052729,25.406413 C15.8007314,26.2235217 13.6668996,27.2895652 10.874869,29.6659239 C8.08283843,32.0422826 5.01304585,36.0403043 3.57956332,41.0096739 C2.41195415,45.0571957 1.89065502,50.089337 2.8514738,54.6924783 C3.63936681,58.4673913 5.76311135,61.7078478 5.49327511,62.225087 C5.18561135,62.8155 2.55101528,67.1273804 1.10240175,72.1713587 C-0.0684497817,76.2486522 -0.391244541,82.6409674 0.539312227,86.9453152 C0.838689956,88.329163 1.3275655,92.6173696 4.52489083,97.0562283 C7.72221616,101.495087 11.3878821,103.367837 12.6985153,103.849207 C15.0178821,104.701109 17.5397162,104.342413 17.8999782,104.297576 C18.2602402,104.252739 18.5531332,104.8245 18.6543668,105.194315 C18.3391376,105.283989 17.3595852,105.575609 16.6390611,106.472348 C15.9185371,107.369087 15.4682096,109.072891 15.3781441,110.687022 C15.2880786,112.301152 16.3688646,115.394902 17.3145524,116.919359 C18.2602402,118.443815 20.7255131,121.278587 22.2908515,122.681087 C24.9852511,125.09475 28.883286,126.273424 30.5920087,126.402554 C32.9636135,126.581902 34.8326528,125.483217 35.4180786,125.483217 C36.0035044,125.483217 40.7996725,129.271043 41.790393,130.049054 C42.9313428,130.945793 47.5844869,135.489033 47.2620524,136.064739 C46.7108515,137.047207 45.2027948,139.65062 44.2823253,142.454185 C43.2617031,145.563 42.7962445,147.715174 42.4810153,150.584739 C42.165786,153.454304 42.5242467,155.263207 42.7587773,155.524337 C43.1417358,155.950467 42.7739083,156.054848 42.3534825,156.241728 C41.9301747,156.429685 41.9481878,157.945533 42.443548,159.335478 C42.9389083,160.725424 44.1922598,163.169217 45.5057751,165.119446 C46.2500764,166.224946 48.4329039,168.661565 48.5680022,168.930587 C48.7031004,169.199609 48.3504039,169.386489 47.5848472,169.924533 C46.8192904,170.462576 45.6707751,170.94825 44.6278166,172.540141 C43.3229476,174.530543 43.6594323,176.060022 43.6143996,176.284207 C43.5693668,176.508391 41.1901965,175.723565 38.7584279,175.813239 C36.0355677,175.913674 34.2101201,176.060022 31.5531878,177.606717 C29.5295961,178.784674 28.8260044,180.667109 28.5060917,182.113011 C27.9206659,184.758391 28.3706332,187.092065 28.934083,188.659207 C29.6996397,190.789141 31.1648253,192.621717 31.8612118,193.300011 C32.8746288,194.286424 34.4507751,195.205761 35.9141594,195.743804 C37.1163537,196.185717 40.5456878,196.912793 42.6690721,197.178587 C46.0692249,197.604717 56.7419869,197.357935 58.4081987,197.357935 C60.0744105,197.357935 64.5103166,196.819891 66.4016921,195.878315 C69.0337664,194.568 69.9473908,192.841239 70.1844432,193.143261 C71.1528275,194.376457 73.1342686,196.035424 76.8042576,197.044076 C80.6536572,198.10187 85.8284607,197.930413 87.5220524,197.626957 C90.8995087,197.021478 93.4714192,195.839217 95.0875546,194.712554 C96.8888646,193.45712 97.9599236,191.968533 98.7352074,190.139185 C99.7709607,187.695391 100.634509,184.433772 101.07691,182.24788 C101.685033,179.243804 101.948024,174.306359 101.752402,170.948967 C101.572271,167.855217 100.558854,165.232076 98.8025764,162.900554 C96.6410044,160.030989 94.3320852,158.835457 92.1600655,158.080402 C89.7733297,157.250739 87.0486681,158.080402 85.5852838,158.887467 C83.3761572,160.105598 81.5438646,162.933913 81.7798362,162.250239 C82.0276965,161.532848 82.1627948,159.380674 82.0727293,157.856217 C81.9826638,156.331761 81.3071725,155.076326 81.9826638,155.210837 C82.658155,155.345348 84.0091376,154.358935 84.7746943,153.148337 C85.5402511,151.937739 85.4826092,149.229587 85.2250218,147.902413 C84.8420633,145.929587 83.5361135,144.674152 82.0276965,144.001598 C80.6705895,143.396478 78.9654694,143.216772 77.3442904,144.449967 C75.8074127,145.618957 75.1600218,146.512467 74.7323908,147.185022 C73.8540721,146.669217 72.525786,144.629315 71.9403603,143.598065 C71.3549345,142.566815 70.1613865,139.360793 70.3415175,138.867587 C70.5216485,138.37438 74.2593668,137.118946 76.1057096,136.76025 C77.9520524,136.401554 80.924214,136.042859 82.6354585,135.998022 C84.3467031,135.953185 89.9534607,136.02062 90.3137227,136.199967 C90.6739847,136.379315 92.1377293,137.651967 93.1583515,138.150554 C94.3969323,138.756033 96.6485699,139.413522 99.1628384,139.525435 C101.097445,139.611163 105.445087,138.486652 106.931168,137.63475 C108.417249,136.782848 111.417511,134.877098 112.470197,134.137467 C114.204138,132.919337 116.565295,131.023989 117.251234,130.199348 C118.33202,128.899076 118.603297,126.542446 118.53845,125.316065 C118.504585,124.677228 118.369487,124.094348 118.53845,124.038033 C118.808646,123.948359 120.418657,122.132283 120.418657,122.132283 C120.418657,122.132283 120.170797,122.446141 120.486386,122.793717 C120.851332,123.195815 123.885819,124.955217 126.723603,125.641043 C130.52905,126.56038 135.502107,125.970685 137.036103,125.461696 C139.805797,124.542359 142.507762,123.017902 144.219007,121.762467 C145.930251,120.507033 149.364989,117.037728 150.65869,115.126598 C152.054705,113.064098 153.266266,110.685228 154.171245,107.504315 C154.891769,104.970848 154.482151,103.363533 154.801703,103.15513 C156.760808,101.877098 159.507806,99.9491087 161.331452,97.1021413 C162.581561,95.150837 164.191212,91.6395652 164.708908,87.7760543 C165.012969,85.4990543 165.325677,80.3980435 164.707828,77.5069565 L164.707828,77.5069565 Z M19.2970742,117.434087 C19.2970742,117.434087 16.6271725,113.319489 16.7226419,110.349848 C16.8127074,107.547359 18.0736245,106.673217 19.0041812,106.374424 C19.342107,107.316 19.9282533,108.540228 20.670393,109.811804 C21.6387773,111.470772 21.863941,111.65012 22.3142686,112.479783 C22.111441,112.726565 21.3458843,113.600707 20.8054913,114.542283 C20.2650983,115.483859 19.2970742,117.434087 19.2970742,117.434087 L19.2970742,117.434087 Z M21.8264738,120.213978 C21.586179,120.064761 20.865655,119.466815 20.865655,119.018446 C20.865655,117.489685 23.1774563,114.116152 23.6277838,114.116152 C24.0179476,114.116152 24.3184061,114.08638 24.4084716,114.53475 C24.4985371,114.98312 22.9375218,116.38813 21.8264738,120.213978 L21.8264738,120.213978 Z M23.6879476,121.828109 C23.5957205,120.819457 24.5886026,118.540304 25.2489629,117.464217 C25.0911681,118.629978 25.2640939,118.308587 25.4665611,118.891467 C26.2998472,117.277337 26.7952074,115.77512 28.1912227,115.012891 C28.7092795,114.87838 28.9866812,114.848609 29.031714,115.072793 C28.2661572,115.924696 25.7302729,119.310783 25.3689301,122.904196 C25.3390284,123.203348 23.7178493,122.157033 23.6879476,121.828109 L23.6879476,121.828109 Z M29.1369105,124.742511 C28.2812882,124.89962 27.2228384,124.198728 27.2905677,123.800935 C27.5384279,122.343554 29.4597052,117.015848 31.193286,115.850087 C31.5762445,115.894924 32.1541048,116.111576 32.2892031,116.627022 C31.816179,117.120228 29.1592467,120.998804 29.1369105,124.742511 L29.1369105,124.742511 Z M35.2163319,123.397402 C35.1035699,122.814522 36.1220306,118.625674 36.5222817,118.689522 C37.0853712,118.779196 37.9409934,118.734359 38.278559,118.644685 C37.8055349,119.205326 36.1843559,123.106141 36.0269214,123.666424 C35.9829694,123.822457 35.2682096,123.665348 35.2163319,123.397402 L35.2163319,123.397402 Z M37.4679694,124.742511 C37.6481004,123.397402 40.0125,119.832685 40.440131,119.631098 C40.6029694,119.554337 41.6109825,120.348489 41.6560153,120.483 C40.687631,121.133315 38.2335262,125.504739 38.2335262,125.504739 C37.8282314,125.459902 37.4258188,125.056728 37.4679694,124.742511 L37.4679694,124.742511 Z M41.0705895,127.656913 C40.5752293,127.365293 39.8842467,126.947413 39.9447707,126.6705 C40.1699345,125.63925 42.8268668,121.760674 43.3672598,121.469413 C43.492631,121.401978 44.4930786,122.09713 44.4930786,122.09713 C44.4930786,122.09713 41.9262118,125.908272 41.0705895,127.656913 L41.0705895,127.656913 Z M66.3188319,194.28463 C63.2566048,195.883696 59.6687555,196.130478 56.5016921,196.197554 C52.9592358,196.272522 43.4573253,196.122946 39.5693777,195.241272 C36.63,194.574815 34.0840284,193.39363 33.0396288,192.266967 C31.2383188,190.323913 30.3978275,188.724848 29.9475,187.110717 C29.4971725,185.496587 29.407107,181.431489 31.193286,179.787228 C33.7525873,177.431674 36.2070524,177.425935 38.6838537,177.291424 C41.160655,177.156913 42.4817358,177.366391 43.8626201,177.485837 C44.0128493,177.724728 45.8440611,179.443598 48.4858624,180.474848 C50.3293231,181.194391 53.4844978,181.446196 54.7302838,181.266848 C55.7318122,181.122652 54.0753275,180.331728 52.0283188,179.876902 C50.2118777,179.47337 49.806583,179.413826 48.1854039,178.606761 C46.5642249,177.799696 45.0626528,176.9955 45.0331114,175.737196 C44.9880786,173.816739 47.3074454,171.530054 48.3205022,171.238435 C48.7596616,171.111815 48.6357314,171.507457 49.4762227,171.388011 C50.076059,171.303 48.6955349,170.281793 49.26619,170.252022 C49.5745742,170.23588 50.2886135,170.974793 51.2775328,171.567359 C52.597893,172.359 54.1300873,172.921435 53.7993668,172.97237 C52.2383515,173.21162 50.8196397,171.67963 50.4820742,171.910989 C49.806583,172.374424 51.7278603,173.480283 53.6494978,174.317478 C55.0905459,174.945196 57.4621507,175.438402 57.7323472,175.572913 C58.0025437,175.707424 57.3720852,176.051413 57.7323472,177.067598 C57.9423799,177.659446 58.4204476,176.08513 63.5866048,176.43988 C66.1985044,176.619228 69.3507969,178.68137 69.8461572,181.371587 C69.9023581,181.676478 70.1087882,182.866272 70.4766157,182.851207 C70.4766157,182.851207 69.1105022,185.183087 68.8403057,187.17062 C68.6295524,188.722337 68.8853384,190.727804 69.1555349,191.504739 C69.3500764,192.062152 67.8531878,193.483663 66.3188319,194.28463 L66.3188319,194.28463 Z M60.2545415,175.124185 C60.2545415,175.124185 60.7102729,174.850141 61.0950328,174.467054 C61.5453603,174.018685 61.9056223,173.689761 61.9056223,173.689761 C61.9056223,173.689761 65.9135371,173.786967 67.6997162,173.390967 C69.1681441,173.065272 70.4917467,172.643446 70.4917467,172.643446 C70.4917467,172.643446 70.7381659,173.845793 70.8368777,174.421859 C70.9420742,175.034511 71.6474672,176.439522 72.232893,177.156913 C72.8183188,177.874304 74.8148908,179.189641 74.8148908,179.189641 C74.8148908,179.189641 73.313679,180.041543 72.593155,180.624424 C71.872631,181.207304 71.152107,182.029076 71.152107,182.029076 C71.152107,182.029076 70.806976,180.08638 70.0414192,178.741272 C69.2758624,177.396163 67.651441,176.454587 66.3188319,175.692359 C64.9076856,174.885293 60.2545415,175.124185 60.2545415,175.124185 L60.2545415,175.124185 Z M79.7310262,144.62788 C81.3749017,144.62788 83.55881,146.017826 83.9190721,147.990652 C84.2793341,149.963478 84.0156223,151.839098 83.4010153,152.765967 C82.6577948,153.886891 81.5096397,154.559446 81.5096397,154.559446 C81.1493777,154.469772 80.9692467,152.810804 79.0551747,150.591196 C78.3450983,149.76763 76.3982424,148.573533 75.7677838,148.147402 C75.9709716,147.160989 78.4575,144.62788 79.7310262,144.62788 L79.7310262,144.62788 Z M72.165524,136.467554 C71.0796943,136.776391 68.3827729,137.678152 68.0898799,138.530054 C68.0221507,139.090696 68.7430349,139.045859 69.1933624,139.001022 C69.3511572,140.21162 70.5014738,143.291022 71.3325983,144.740152 C72.4811135,146.743109 75.3855459,149.485337 75.3855459,149.485337 C75.3855459,149.485337 76.4684934,149.936576 77.5698144,150.905054 C78.6707751,151.873533 79.9417795,153.947152 80.4068777,156.083902 C80.6997707,157.429011 80.804607,159.700989 80.444345,161.494467 C80.1345197,163.038293 79.1682969,163.990272 79.2432314,165.33538 C79.6784279,165.350446 79.903952,165.021522 80.2191812,164.7525 C80.5344105,164.483478 80.6612227,167.409359 81.4800983,169.11675 C82.4405568,171.119348 84.8200873,170.911663 85.8331441,170.73088 C87.0039956,170.521761 88.7754039,170.058326 88.9555349,168.040663 C89.0005677,166.874902 87.7446943,167.784913 86.7939629,168.817598 C86.2986026,169.355641 84.0181441,169.885076 83.131179,168.817598 C82.050393,167.517326 81.8893559,165.517239 82.8458515,163.75138 C84.2868996,161.091293 85.5179148,160.208902 86.8688974,159.536348 C88.2198799,158.863793 90.3356987,158.434435 92.2429258,159.297457 C94.8847271,160.492989 97.1385262,162.511728 98.4574454,164.917141 C99.7032314,167.18912 100.33369,168.279554 100.243624,174.018685 C100.153559,179.757815 99.1178057,183.748304 98.6674782,185.676293 C98.2171507,187.604283 97.2278712,191.704533 94.6595633,193.343413 C92.903286,194.464337 90.1029694,195.729457 88.5574454,195.966554 C86.2157424,196.32525 82.8833188,196.482359 79.5732314,196.123663 C76.4735371,195.787565 74.0342031,194.755957 72.593155,193.635033 C71.152107,192.514109 70.1837227,191.639609 70.0035917,189.532272 C69.8234607,187.424935 70.498952,185.519185 71.3095415,184.174076 C72.120131,182.828967 74.5518996,180.093913 75.9706114,179.802293 C76.5704476,179.678902 80.496583,181.349348 83.4910808,181.371587 C85.9228493,181.38988 87.5894214,180.549815 88.3099454,179.384054 C88.8730349,178.3155 88.1298144,178.621826 86.9362664,179.286848 C85.9981441,179.697913 85.5103493,179.458663 85.4055131,179.368989 C85.3377838,179.219772 86.4189301,178.599228 86.0583079,178.008815 C85.0751528,178.009174 84.4227183,179.22013 82.328155,179.264609 C81.5179258,179.281826 77.7571507,179.294022 75.3253821,177.904076 C72.8936135,176.51413 72.098155,174.825391 72.0531223,173.390609 C72.0080895,171.955826 72.2364956,170.139033 72.7736463,168.862076 C73.1227402,168.032413 73.0326747,167.758011 72.818679,167.651478 C72.4746288,167.480022 71.2763974,168.979728 70.8541703,170.834902 C69.9142467,171.776478 66.8545415,172.381957 65.2758734,172.381957 C63.0692686,172.381957 59.9382314,172.996402 54.2878821,171.103924 C51.8110808,170.274261 49.311583,167.875663 47.9606004,166.171859 C46.6096179,164.468054 43.7498581,160.537467 43.5023581,158.026598 C45.0633734,158.893565 48.5935808,160.302163 53.9499563,160.089098 C59.9544432,159.850207 63.9922598,158.29562 67.2796507,156.860837 C70.5670415,155.426054 73.7643668,153.169141 74.4398581,151.285989 C74.4679585,151.106641 74.3890611,151.1235 74.3328603,151.089783 C74.3609607,151.081533 74.3933843,151.058217 74.4272489,151.029522 C74.376452,151.070054 74.3296179,151.09337 74.2896288,151.091576 C73.9743996,151.076511 73.6130568,151.471793 73.2913428,151.801435 C71.805262,153.325891 69.1108624,154.290065 67.0393559,155.366152 C65.2881223,156.275804 62.0857533,157.398522 58.9936245,158.05637 C56.5024127,158.586522 52.3287773,159.072913 49.686976,158.654315 C47.2267467,158.264413 44.1029148,157.040185 43.3222271,156.293022 C42.8142576,155.806989 43.4908297,155.969478 44.2830459,148.610837 C44.6433079,145.26313 47.1352402,139.045859 48.0358952,137.342054 C48.9365502,135.63825 52.058941,130.705826 52.5543013,130.21262 C53.0496616,129.719413 53.2074563,129.002022 52.7120961,129.002022 C52.2167358,129.002022 51.1359498,130.302293 50.3253603,131.333543 C49.6015939,132.254315 48.096059,134.606641 48.096059,134.606641 C48.096059,134.606641 46.5872817,132.588978 45.7766921,131.781913 C44.9661026,130.974848 43.2098253,129.540065 42.6467358,128.912348 C42.6467358,128.508815 45.7089629,123.28513 46.2943886,123.195457 C47.2400764,123.487076 49.1422598,124.52012 50.6402293,125.05637 C52.0812773,125.572174 52.9365393,126.337272 53.3421943,126.379239 C53.9953493,126.446674 54.5807751,126.06538 54.9410371,126.155054 C55.3012991,126.244728 60.6605568,127.202446 62.4615066,127.275978 C68.1205022,127.507696 69.621714,126.476446 70.522369,126.431609 C71.423024,126.386772 75.6787991,126.737935 75.6787991,126.737935 L75.7688646,135.525978 C75.7681441,135.525978 73.426441,136.108859 72.165524,136.467554 L72.165524,136.467554 Z M77.5770197,135.12962 L77.3068231,126.87962 L78.6880677,127.387891 L78.8981004,134.9205 L77.5770197,135.12962 L77.5770197,135.12962 Z M80.819738,134.801054 L80.5495415,127.776717 L82.260786,127.776717 L82.3807533,134.71138 L80.819738,134.801054 L80.819738,134.801054 Z M86.0132751,134.801054 L84.4223581,134.741511 L84.2721288,127.687043 L86.1934061,127.537467 L86.0132751,134.801054 L86.0132751,134.801054 Z M87.9648144,134.980402 L88.0548799,128.254859 L89.4361245,128.792902 L89.7661245,134.920859 L87.9648144,134.980402 L87.9648144,134.980402 Z M92.8132205,136.265609 C92.362893,136.175935 91.6874017,135.413707 91.6874017,135.413707 L91.5523035,129.271043 L93.2412118,129.697174 C93.2412118,129.697174 93.1061135,130.437163 93.2412118,130.751022 C93.37631,131.06488 93.8493341,130.93037 93.8493341,130.93037 C93.8493341,130.93037 93.0156878,133.934087 92.8132205,136.265609 L92.8132205,136.265609 Z M94.7946616,137.341696 C94.7946616,137.341696 95.1549236,132.319957 95.4251201,131.37838 C95.6737009,130.511772 95.3123581,130.167783 95.3123581,130.167783 L96.7609716,129.360717 C96.7609716,129.360717 96.1380786,137.012772 97.2487664,137.812663 C96.4608734,137.992011 95.1549236,137.700391 94.7946616,137.341696 L94.7946616,137.341696 Z M100.303788,137.939641 C99.8833624,138.328109 97.8568886,138.036848 98.1497817,137.902337 C99.1923799,137.423478 98.5327402,128.665924 98.7579039,128.486576 C98.9830677,128.307228 99.5385917,128.060446 99.853821,128.28463 C100.16905,128.508815 100.873723,137.412717 100.303788,137.939641 L100.303788,137.939641 Z M115.374989,130.197913 C114.362293,131.206207 109.565404,134.31538 109.565404,134.31538 C109.565404,134.31538 109.520371,132.432228 108.732118,130.773261 C108.292598,129.848185 107.178308,128.329467 107.178308,128.329467 C107.178308,128.329467 110.195502,126.805011 111.411386,125.728924 C112.627271,124.652837 114.068319,122.680011 114.608712,122.590337 C115.149105,122.500663 117.017063,123.328174 117.175939,125.29562 C117.333734,127.246207 116.230611,129.346011 115.374989,130.197913 L115.374989,130.197913 Z M163.176714,89.5455 C162.402871,92.6288478 161.577871,95.3520652 159.574094,97.7058261 C158.446114,99.0304891 155.070819,101.830826 154.654356,102.021293 C154.534028,101.154326 154.2469,99.9742174 153.539705,98.3783804 C152.526288,96.0916957 150.392456,95.3014891 151.040207,96.1813696 C151.783428,97.1903804 153.199978,100.42438 152.976616,103.848489 C152.751452,107.300935 151.355437,111.224348 149.193865,114.609359 C147.793166,116.802783 144.840819,119.645804 142.033657,121.469413 C138.858668,123.531913 135.233352,124.464522 132.396648,124.608 C128.41107,124.809946 124.651015,123.442239 122.984803,122.859359 C121.318592,122.276478 120.879432,121.889804 120.429105,122.091391 C120.902129,121.760674 123.540328,117.792783 124.786114,114.833543 C127.239498,109.005815 127.082784,107.151717 127.262915,105.507457 C127.395491,104.2965 127.037751,102.324033 126.812587,102.36887 C126.587424,102.413707 126.722522,104.730522 125.821867,107.883815 C124.844836,111.303978 122.999934,115.341815 121.94905,117.120228 C120.670841,119.283163 117.973559,123.044087 117.682107,122.814522 C117.197915,122.433228 116.207194,121.491652 115.374269,121.177793 C114.695175,120.922043 113.910524,121.08812 113.482893,121.379739 C113.140284,121.612891 111.14119,123.958043 109.542347,125.101207 C108.502271,125.844783 103.60559,127.99337 103.740688,128.419141 C103.810579,128.506304 104.003679,128.718293 104.836965,128.583783 C106.427882,129.749543 107.688799,134.352685 107.478766,135.727924 C107.178668,135.996946 106.848668,136.235837 106.187948,136.415185 C106.187948,135.226826 105.452293,131.557728 104.956932,131.423217 C104.461572,131.288707 103.832915,131.442228 103.815983,132.260054 C103.793286,133.358739 104.536507,136.827326 104.206507,137.132576 C103.576048,137.715457 102.539934,137.745228 102.539934,137.745228 C103.110229,135.144685 101.864803,129.510293 101.924607,129.18137 C102.042413,128.532489 103.615317,131.1915 103.980983,131.423217 C104.228843,131.580326 104.363941,129.853924 103.462926,128.598489 C103.237762,128.245533 102.044214,127.365293 100.82833,127.11887 C98.9744214,126.742957 96.8805786,127.716815 94.6588428,128.852446 C93.8705895,128.829848 90.6361572,128.194957 88.8045852,127.268446 C88.4342358,127.081207 90.666059,126.789946 92.3621725,124.787348 C93.6375,123.281543 94.8641921,120.5655 95.0191048,119.00338 C95.1768996,117.411489 95.0418013,115.438663 94.3212773,114.213359 C93.9905568,113.645543 93.06,112.031054 90.0204694,110.887891 C87.5263755,109.949902 82.6199672,109.333663 80.353559,109.871707 C80.353559,109.871707 78.2517904,110.20063 77.8317249,111.351326 C77.9967249,111.485837 80.4735262,110.723967 82.665,110.708902 C84.8564738,110.693837 87.7389301,111.385402 88.9695852,111.9195 C90.3807314,112.532152 91.7767467,113.368989 92.6024672,114.729163 C93.4281878,116.089337 93.6832533,118.525598 93.3229913,120.079826 C92.9627293,121.634054 91.7616157,123.203707 90.9211245,124.115152 C90.0806332,125.026598 88.8643886,125.938043 87.1682751,126.32687 C85.4721616,126.715696 82.5749345,127.04462 80.3834607,126.581185 C78.1919869,126.11775 75.4748908,124.921859 74.6343996,124.443717 C73.7939083,123.965576 72.9833188,123.173576 72.1276965,123.517207 C71.9176638,123.84613 73.133548,124.84725 74.0792358,125.445196 C72.3229585,125.444837 73.49381,124.996467 73.0733843,124.727446 C72.6662882,124.466674 71.2720742,124.936565 70.3714192,125.175815 C68.9137991,125.562848 65.2387664,125.629565 63.4064738,125.594413 C59.5037555,125.519446 58.9125655,125.196261 56.1713319,124.757576 C53.6494978,124.354043 49.2060262,123.143446 46.0688646,121.334902 C42.9317031,119.526359 40.4246397,117.73288 38.5934279,116.044141 C37.3620524,114.908511 34.3452183,111.78463 33.5497598,110.1705 C32.7543013,108.55637 31.523286,106.359359 31.4933843,104.252022 C31.4634825,102.144685 31.6500983,101.54925 32.0186463,100.351207 C32.3039738,99.4246957 32.9942358,98.3934457 32.9942358,98.3934457 C32.9942358,98.3934457 34.4352838,99.6488804 38.1578712,100.724967 C41.8804585,101.801054 44.0420306,101.516967 44.4022926,101.083663 C44.6962664,100.729989 43.9897926,100.612696 42.5408188,100.425815 C40.9196397,100.216337 38.1243668,99.5495217 37.0169214,98.9311304 C34.6600873,97.6157935 32.5136463,95.9421196 32.033417,92.95275 C31.5531878,89.9633804 32.1973362,87.6139239 33.3242358,86.0926957 C34.6752183,84.2694457 37.9175764,82.9092717 40.1991157,82.9092717 C42.480655,82.9092717 44.4022926,83.626663 45.9633079,86.3767826 C47.5243231,89.1269022 47.9753712,91.0412609 48.1248799,93.6701413 C48.1699127,94.4625 48.2675437,94.9854783 48.3651747,95.0303152 C48.7535371,94.986913 48.8212664,94.919837 48.9956332,94.4323696 C48.9956332,94.4323696 49.1984607,90.7557391 48.8605349,89.7915652 C49.3785917,90.01575 49.6109607,90.255 50.3242795,89.814163 C51.2166485,89.2624891 52.1781878,87.0045 51.427762,86.0030217 C50.8084716,85.5098152 49.0633624,85.6217283 48.4779367,88.0881196 C48.1400109,87.1913804 47.8024454,86.653337 47.3744541,85.8387391 C48.1288428,84.9308804 49.8137882,83.6044239 51.8175655,84.0750326 C53.7575764,84.5309348 54.3693013,85.7637717 54.5494323,86.526 C54.7252402,87.2695761 55.3027402,86.7433696 55.3312009,86.7171848 C55.3452511,86.0528804 55.1982642,85.1184783 54.2493341,84.2841522 C52.641845,82.8708913 50.1664847,82.7596957 48.6652729,83.5965326 C47.4083188,84.2970652 46.7137336,85.0015435 46.7137336,85.0015435 C46.7137336,85.0015435 46.3235699,84.5682391 45.7381441,83.9552283 C45.1527183,83.3422174 44.2671943,82.8791413 44.2671943,82.8791413 C44.2671943,82.8791413 45.2881769,82.2438913 46.3837336,81.6983152 C47.6745524,81.0555326 48.5975437,80.8062391 48.5453057,80.4877174 C48.5078384,80.2585109 48.4934279,80.2201304 48.4883843,80.2169022 L48.5045961,80.2047065 C48.4977511,80.2097283 48.4919869,80.2140326 48.4851419,80.2190543 C48.1003821,79.6526739 45.3930131,77.439163 42.2407205,77.6185109 C39.0019651,77.8028804 43.0963428,80.532913 43.8618996,80.6674239 C44.6274563,80.8019348 45.4380459,80.3535652 44.4022926,79.8603587 C43.3665393,79.3671522 43.6367358,79.0532935 44.4923581,79.3671522 C45.3479803,79.6810109 46.7512009,80.2897174 46.3686026,80.4583043 C44.8075873,81.1459239 43.6515066,81.9379239 43.2912445,82.2668478 C42.660786,81.9232174 40.9344105,81.5196848 39.8085917,81.5196848 C38.6827729,81.5196848 37.6769214,81.489913 37.0165611,81.7438696 C36.5212009,81.4300109 34.5808297,76.8214891 37.1966921,74.8389783 C40.2138865,72.5522935 43.6363755,71.969413 48.6800437,71.8797391 C53.7237118,71.7900652 57.9567904,71.8349022 62.8653603,72.1039239 C67.7739301,72.3729457 75.1142686,73.8974022 76.2400873,74.2112609 C77.3659061,74.5251196 77.9963646,74.3906087 76.6453821,73.5835435 C75.2943996,72.7764783 68.4944541,71.3865326 65.9726201,71.1175109 C63.450786,70.8484891 51.697238,70.5346304 51.2469105,70.4897935 C50.796583,70.4449565 52.4627948,69.5930543 52.958155,67.6202283 C53.2795087,66.3400435 53.0482205,65.1541957 52.3276965,64.9300109 C51.6071725,64.7058261 51.9674345,65.9612609 51.697238,67.1270217 C51.4270415,68.2927826 50.4813537,70.2207717 49.5806987,70.4001196 C48.6800437,70.5794674 45.2125218,70.5346304 42.5555895,71.027837 C40.8202074,71.3499457 38.0973472,72.1039239 36.5212009,73.4041957 C34.9450546,74.7044674 34.2245306,76.6772935 34.2695633,78.6501196 C34.3189192,80.8184348 35.5755131,82.281913 35.3953821,82.4164239 C35.2152511,82.5509348 32.7384498,83.4702717 31.4325,85.7121196 C29.8502293,88.428163 29.6084934,91.0028804 29.9464192,92.9534674 C30.2194978,94.5306522 30.6669432,95.5988478 31.7026965,97.2578152 C31.0272052,98.2442283 29.9410153,100.546696 29.9237227,102.885033 C29.9010262,105.956543 30.6986463,108.223141 31.3424345,109.633174 C32.4682533,112.099207 33.8343668,113.566272 34.5246288,114.370826 C35.3200873,115.297696 36.5961354,116.582902 37.7068231,117.569315 C37.2637009,117.753326 35.9361354,117.623837 35.29631,117.506902 C34.5368777,117.759783 33.449607,120.901239 32.9636135,124.519043 C32.760786,124.788065 31.8828275,125.057087 31.4325,124.832902 C30.892107,124.317098 32.4909498,118.757315 33.9993668,117.434804 C34.0894323,117.412207 34.1121288,117.457402 34.5397598,117.7935 C34.9450546,117.928011 34.9450546,117.7935 34.9900873,117.434804 C34.4197926,116.784489 32.9935153,115.252859 31.957762,114.580304 C30.9220087,113.90775 28.8656332,113.45938 27.4245852,113.758174 C26.4504367,113.96012 24.5875218,112.472967 23.5067358,111.39688 C22.4259498,110.320793 19.9642795,106.10612 19.5888865,103.669859 C18.9566266,99.5667391 19.0679476,95.8409674 19.4537882,93.088337 C19.9041157,89.8751413 21.315262,86.7365543 22.4259498,84.5244783 C23.7005568,81.9863478 24.9928166,81.1168696 24.9477838,80.4891522 C24.9027511,79.8614348 23.1915066,80.9974239 21.9756223,82.8206739 C20.9060044,84.4247609 19.0034607,88.3205543 18.1928712,92.1169891 C17.2511463,96.5264348 17.8326092,101.652196 18.0426419,103.057207 C18.1002838,103.44137 14.7253493,102.997304 13.1041703,102.459261 C11.5827838,101.954576 6.34925764,98.7377935 4.09762009,93.5367065 C1.84598253,88.3356196 1.17049127,84.748663 1.28289301,80.0181848 C1.42411572,74.0918152 3.93802402,67.6729565 5.15570961,65.3565 C6.6644869,62.4869348 9.08328603,59.6320761 10.8298362,57.6445435 C13.036441,55.1336739 14.9505131,54.8420543 14.9955459,54.2591739 C15.0405786,53.6762935 13.7814629,53.5439348 12.6988755,54.3936848 C8.12787118,57.9806413 6.7260917,61.1378804 6.43932314,60.6708587 C5.44860262,59.0567283 3.55722707,55.9181413 3.60225983,49.3719457 C3.63,45.3366196 4.88443231,39.314837 7.61017467,35.0241196 C10.9425983,29.7781957 15.3374345,27.608087 17.9677074,26.4825 C20.8498035,25.2493043 27.6274127,24.9580435 28.9556987,25.1147935 C30.0620633,25.2453587 29.0457642,24.2851304 27.6947817,24.2851304 C26.3437991,24.2851304 25.7760262,24.5652717 25.7133406,24.1280217 C25.5332096,22.872587 26.5502293,17.4763696 29.2709279,14.3535652 C32.513286,10.6320978 34.8258079,9.10261957 39.4483297,7.6728587 C44.0867031,6.23807609 46.9237664,6.15091304 51.2018777,6.28291304 C57.0111026,6.46226087 65.4430349,9.86126087 67.5714629,11.6185109 C68.4948144,12.3807391 67.8643559,11.0130326 66.7832096,9.93694565 C65.6941376,8.8526087 63.6532533,8.07603261 63.2029258,7.85184783 C62.8383406,7.67034783 66.3862009,4.78356522 70.6408952,3.15903261 C75.0242031,1.485 79.613941,1.18226087 82.7248035,1.35048913 C86.3122926,1.54490217 90.7554039,2.66080435 94.0730568,4.44423913 C98.0208079,6.5666413 101.908755,10.5869022 102.674312,11.5284783 C103.439869,12.4700543 106.141834,15.5638043 105.91667,16.2811957 C105.691507,16.998587 102.359083,18.1643478 102.223985,19.7784783 C102.092489,21.3499239 104.250459,17.7608152 109.699421,16.5502174 C115.148384,15.3396196 121.3575,14.5106739 125.731081,15.4741304 C130.819782,16.5950543 135.53309,20.1221087 137.469498,22.2294457 C139.405906,24.3367826 141.874782,28.1888152 142.933592,30.5988913 C144.089312,33.2292065 144.915033,37.0403478 145.185229,37.1748587 C145.455426,37.3093696 145.84559,35.082587 145.425524,33.8866957 C145.129389,33.0434022 150.499094,35.5158913 152.390469,37.89225 C154.281845,40.2686087 157.434138,46.097413 157.389105,52.5987717 C157.344072,59.1001304 154.781168,64.515 153.62869,66.0724565 C152.367773,67.7762609 149.170448,70.3319674 149.125415,70.4890761 C149.031026,70.8176413 151.602216,69.6371739 152.750731,68.7404348 C153.874028,67.8630652 154.35714,67.2608152 155.0175,66.5136522 C155.812959,66.693 157.501867,67.8214565 158.897882,69.39075 C160.293897,70.9600435 162.748362,74.4573261 163.513919,78.2684674 C164.084574,81.1064674 163.987303,86.3172391 163.176714,89.5455 L163.176714,89.5455 Z M59.443952,92.3702283 C59.9818231,91.8422283 60.5622052,90.8231739 60.6825328,89.747087 C60.8028603,88.671 60.2095087,88.1777935 59.1063865,88.2000326 C58.4431441,88.213663 56.1342249,90.5093152 56.4944869,91.6973152 C56.6850655,92.3271848 57.8501528,93.9348587 59.443952,92.3702283 L59.443952,92.3702283 Z M68.7506004,108.018326 C67.4976092,107.550228 66.8531004,108.203413 67.2944214,108.496467 C67.9248799,108.915065 68.1500437,109.079348 68.5852402,109.707065 C67.2472271,110.355587 62.3858515,110.738315 59.8640175,110.678772 C57.3421834,110.619228 53.4931441,110.342674 50.5047707,109.542783 C47.8251419,108.825391 45.0633734,107.749304 43.4119323,106.942239 C41.7604913,106.135174 40.4999345,104.580946 40.214607,105.103924 C39.7491485,106.075272 43.9371943,108.526598 45.8437009,109.453109 C47.1770306,110.101272 49.8746725,111.106696 52.7787445,111.605283 C55.3906441,112.053652 58.845917,112.144761 61.9654258,111.963978 C65.3129803,111.769924 69.0056659,110.484 69.3057642,110.603804 C70.3714192,111.635054 69.6058624,113.413826 70.5216485,113.294022 C71.0919432,112.845652 71.1766048,111.170185 70.8520087,110.200272 C70.5220087,109.213859 69.3511572,108.242511 68.7506004,108.018326 L68.7506004,108.018326 Z M72.0754585,79.9729891 C71.7090721,78.8018478 70.8584934,78.0274239 69.6660262,78.045 C68.1572489,78.0675978 66.5811026,78.8072283 65.0499891,79.995587 C64.080524,80.7477717 61.8976965,82.5512935 60.9520087,82.4616196 C60.006321,82.3719457 60.1637555,81.3406957 60.794214,79.995587 C61.4246725,78.6504783 61.3796397,78.4711304 60.9293122,78.4711304 C60.4789847,78.4711304 59.8186245,79.8011739 59.8186245,79.8011739 C59.8186245,79.8011739 58.8880677,81.1613478 59.1132314,82.3719457 C59.3383952,83.5825435 60.119083,83.8964022 60.5993122,83.8964022 C61.0795415,83.8964022 62.5807533,83.478163 64.7722271,81.6696196 C66.9637009,79.8610761 68.369083,79.1849348 69.3655677,79.1289783 C70.4312227,79.0690761 70.8966812,79.6670217 71.0768122,80.7879457 C71.2569432,81.9088696 71.2119105,83.328587 71.3470087,83.567837 C71.8463319,83.5567174 71.8456114,83.2364022 71.9324345,83.1660978 C71.9291921,83.164663 71.9234279,83.1621522 71.9234279,83.1621522 C71.9234279,83.1621522 72.4753493,81.250663 72.0754585,79.9729891 L72.0754585,79.9729891 Z" id="Shape"/>
            </g>
            <g id="blue" transform="translate(16.572052, 75.684783)" fill="#0094D9" sketch:type="MSShapeGroup">
                <path d="M76.0311354,39.0443804 C75.2054148,37.6842065 73.8093996,36.8473696 72.3982533,36.2347174 C71.1675983,35.7006196 68.2851419,35.0090543 66.0936681,35.0241196 C63.9021943,35.0391848 61.425393,35.8010543 61.260393,35.6665435 C61.6804585,34.5158478 63.7822271,34.1869239 63.7822271,34.1869239 C63.7822271,34.1869239 63.8272598,30.9138261 63.7670961,28.8064891 C63.7069323,26.6991522 63.1665393,23.6204674 62.671179,21.2441087 C62.1758188,18.86775 61.620655,17.7166957 60.900131,15.9831196 C60.179607,14.2495435 59.6842467,13.2631304 58.3332642,11.3050109 C56.9822817,9.3468913 55.9166266,8.33070652 55.5711354,8.07675 C55.3297598,7.89919565 55.5963537,7.59143478 55.5109716,7.5236413 C55.2108734,7.28475 55.4508079,7.86727174 54.7753166,7.88233696 C54.6402183,7.64308696 54.6852511,6.22336957 54.5051201,5.10244565 C54.3249891,3.98152174 53.8595306,3.38357609 52.7938755,3.44347826 C51.7973908,3.49943478 50.3920087,4.17557609 48.2005349,5.98411957 C46.0090611,7.79266304 44.5078493,8.21090217 44.0276201,8.21090217 C43.5473908,8.21090217 42.7667031,7.89704348 42.5415393,6.68644565 C42.3163755,5.47584783 43.2469323,4.11567391 43.2469323,4.11567391 L41.0554585,3.98116304 C41.0554585,3.98116304 40.965393,4.13073913 40.4999345,4.8183587 C40.034476,5.50597826 38.9313537,6.75352174 38.2032642,6.77611957 C37.7360044,6.79046739 37.3786245,6.65380435 37.2874782,5.80477174 C37.1675109,4.68384783 38.0080022,2.21781522 37.6477402,0.498945652 C37.4355459,-0.513293478 36.2967576,0.842934783 35.8312991,1.44052174 C35.4432969,1.9391087 35.2909061,2.32219565 34.7353821,2.77056522 C34.1798581,3.21893478 33.8797598,3.0693587 33.8797598,3.0693587 L31.9163319,4.53211957 C31.9213755,4.53570652 31.935786,4.57408696 31.9732533,4.80293478 C32.0254913,5.12145652 31.1025,5.37075 29.8116812,6.01353261 C28.7161245,6.5591087 27.6951419,7.1943587 27.6951419,7.1943587 C27.6951419,7.1943587 28.5806659,7.65779348 29.1660917,8.27044565 C29.7515175,8.88309783 30.1416812,9.31676087 30.1416812,9.31676087 C30.1416812,9.31676087 30.8362664,8.6126413 32.0932205,7.91175 C33.5944323,7.07491304 36.0697926,7.18575 37.6772817,8.59936957 C39.0884279,9.83973913 38.7281659,11.3046522 38.6979039,11.7677283 C39.4634607,10.9158261 41.1419214,9.94878261 42.6006223,9.60048913 C45.1375873,8.99501087 46.7465175,9.23820652 47.7793886,9.55565217 C48.9952729,9.92941304 50.5714192,11.2594565 51.3820087,13.0080978 C52.1925983,14.7567391 51.8190066,17.5004022 51.517107,18.5230435 C51.0667795,20.0475 50.0310262,21.4374457 48.5449454,22.5135326 C46.2497162,24.1753696 43.2462118,24.5304783 40.303952,23.7689674 C36.8965939,22.8872935 35.8979476,19.136413 35.8457096,19.1507609 C34.9749563,19.3896522 32.940917,19.0011848 32.9484825,18.5980109 C32.7006223,18.665087 32.580655,18.7099239 32.4232205,18.7472283 C32.2488537,19.2346957 32.1811245,19.3021304 31.792762,19.3451739 C31.695131,19.2999783 31.5975,18.7773587 31.5524672,17.985 C31.4029585,15.3561196 30.9519105,13.4414022 29.3908952,10.6916413 C27.8298799,7.94188043 25.9082424,7.22413043 23.6267031,7.22413043 C21.3451638,7.22413043 18.1028057,8.58430435 16.7518231,10.4075543 C15.6245633,11.9287826 14.9804148,14.2782391 15.4610044,17.2676087 C15.9415939,20.2569783 18.0880349,21.9302935 20.4445087,23.2459891 C21.5523144,23.8643804 24.3472271,24.5311957 25.9684061,24.7406739 C27.4170197,24.9275543 28.1238537,25.0448478 27.8298799,25.3985217 C27.4696179,25.8318261 25.3080459,26.115913 21.5854585,25.0398261 C17.8628712,23.9637391 16.4218231,22.7083043 16.4218231,22.7083043 C16.4218231,22.7083043 15.7312009,23.7395543 15.4462336,24.6660652 C15.0776856,25.8641087 14.8907096,26.4595435 14.9209716,28.5668804 C14.9512336,30.6742174 16.1818886,32.8712283 16.9773472,34.4853587 C17.7728057,36.0994891 20.7896397,39.2233696 22.0210153,40.359 C23.8522271,42.0477391 26.3592904,43.8412174 29.496452,45.6497609 C32.6336135,47.4583043 37.0770852,48.6689022 39.5989192,49.0724348 C42.3401528,49.5111196 42.9313428,49.8343043 46.8340611,49.9092717 C48.666714,49.9444239 52.3417467,49.8777065 53.7990066,49.4906739 C54.6996616,49.2514239 56.0938755,48.7815326 56.5009716,49.0423043 C56.9213974,49.3113261 55.7505459,49.7596957 57.5068231,49.7600543 C56.5611354,49.1621087 55.3452511,48.1609891 55.5552838,47.8320652 C56.4109061,47.4884348 57.2214956,48.2804348 58.0619869,48.7585761 C58.9024782,49.2367174 61.6195742,50.4326087 63.811048,50.8960435 C66.0025218,51.3594783 68.8997489,51.0305543 70.5958624,50.6417283 C72.291976,50.2529022 73.5082205,49.3414565 74.3487118,48.4300109 C75.1892031,47.5185652 76.3903166,45.948913 76.7505786,44.3946848 C77.1108406,42.8404565 76.8568559,40.4045543 76.0311354,39.0443804 L76.0311354,39.0443804 Z M53.9499563,37.6092391 C53.0341703,37.7290435 53.7997271,35.9502717 52.7340721,34.9190217 C52.4339738,34.7992174 48.7412882,36.0851413 45.3937336,36.2791957 C42.2742249,36.4599783 38.818952,36.3688696 36.2070524,35.9205 C33.3029803,35.421913 30.6053384,34.4164891 29.2720087,33.7683261 C27.3655022,32.8418152 23.1774563,30.3904891 23.6429148,29.4191413 C23.9282424,28.896163 25.1891594,30.4503913 26.8402402,31.2574565 C28.491321,32.0645217 31.2534498,33.1406087 33.9330786,33.858 C36.921452,34.6578913 40.7704913,34.9344457 43.2923253,34.9939891 C45.8141594,35.0535326 50.6758952,34.6708043 52.013548,34.0222826 C51.5783515,33.3945652 51.3531878,33.2302826 50.7227293,32.8116848 C50.2814083,32.5186304 50.9255568,31.8654457 52.1789083,32.3335435 C52.7794651,32.5577283 53.9503166,33.5290761 54.2803166,34.5154891 C54.6049127,35.4854022 54.5202511,37.1608696 53.9499563,37.6092391 L53.9499563,37.6092391 Z M73.2913428,47.7237391 C72.6608843,47.813413 72.263155,47.0400652 72.6533188,45.8445326 C72.891452,45.1153043 70.3191812,44.5851522 69.89119,44.5740326 C69.8684934,45.045 69.8800218,45.3140217 69.4858952,45.8072283 C69.2679367,46.0805543 68.8327402,46.4349457 67.7296179,46.3678696 C66.5573253,46.2964891 66.2774017,45.874663 66.1307751,46.031413 C65.939476,46.4127065 65.8043777,46.8384783 65.1512227,47.2646087 C64.4980677,47.6907391 63.1586135,47.6907391 62.2464301,47.343163 C61.6912664,47.1315326 60.9516485,46.5249783 61.2445415,46.1885217 C61.5374345,45.8520652 62.3930568,46.468663 63.1809498,46.5360978 C63.9688428,46.6035326 64.5996616,46.1436848 64.8021288,45.6730761 C65.0045961,45.2024674 64.8698581,44.2382935 64.8698581,44.2382935 C64.8698581,44.2382935 63.2036463,43.9803913 62.055131,44.2831304 C61.0085699,44.5589674 59.9609279,45.5163261 59.7357642,45.5163261 C59.5106004,45.5163261 59.1726747,45.0453587 59.3528057,44.7315 C59.5329367,44.4176413 60.9739847,43.3340217 62.7752948,42.9154239 C64.2267904,42.57825 67.2483079,42.7052283 69.0798799,42.9753261 C72.322238,43.4534674 73.845786,44.5743913 74.1837118,45.2469457 C74.7024891,46.2441196 73.9218013,47.6340652 73.2913428,47.7237391 L73.2913428,47.7237391 Z" id="Shape"/>
                <path d="M58.8134934,73.8005543 C58.8134934,73.8005543 58.0454148,75.4225761 57.7175764,75.4071522 C57.4023472,75.392087 57.0410044,75.7873696 56.7192904,76.1170109 C55.2332096,77.6414674 52.53881,78.6056413 50.4673035,79.6817283 C48.7160699,80.5913804 45.5137009,81.7140978 42.4215721,82.3719457 C39.9303603,82.9020978 35.7567249,83.3884891 33.1149236,82.9698913 C30.6546943,82.5799891 27.5308624,81.3557609 26.7501747,80.6085978 C26.2422052,80.1225652 26.9187773,80.2850543 27.7109934,72.926413 C28.0712555,69.5787065 30.5631878,63.3614348 31.4638428,61.6576304 C32.3644978,59.9538261 35.4868886,55.0214022 35.9822489,54.5281957 C36.4776092,54.0349891 36.6354039,53.3175978 36.1400437,53.3175978 C35.6446834,53.3175978 34.5638974,54.6178696 33.7533079,55.6491196 C33.0295415,56.5698913 31.5240066,58.9222174 31.5240066,58.9222174 C31.5240066,58.9222174 30.0152293,56.9045543 29.2046397,56.0974891 C28.3940502,55.2904239 26.6377729,53.8556413 26.0746834,53.2279239 C26.0746834,52.8243913 29.1369105,47.6007065 29.7223362,47.5110326 C30.668024,47.8026522 32.5702074,48.8356957 34.0681769,49.3719457 C35.5092249,49.88775 36.3644869,50.6528478 36.7701419,50.6948152 C37.4232969,50.76225 38.0087227,50.3809565 38.3689847,50.4706304 C38.7292467,50.5603043 44.0885044,51.5180217 45.8894541,51.5915543 C51.5484498,51.8232717 53.0496616,50.7920217 53.9503166,50.7471848 C54.8509716,50.7023478 59.1067467,51.0535109 59.1067467,51.0535109 L59.1968122,59.8415543 C59.1968122,59.8415543 56.8551092,60.4244348 55.5941921,60.7831304 C54.5083624,61.0919674 51.811441,61.9937283 51.518548,62.8456304 C51.4508188,63.4062717 52.1717031,63.3614348 52.6220306,63.3165978 C52.7798253,64.5271957 53.9301419,67.6065978 54.7612664,69.0557283 C55.9087009,71.0579674 58.8134934,73.8005543 58.8134934,73.8005543 L58.8134934,73.8005543 Z" id="Shape"/>
                <path d="M64.9379476,78.8743043 C64.5776856,78.7846304 64.3975546,77.125663 62.4834825,74.9060543 C61.7734061,74.0824891 59.8265502,72.8883913 59.1960917,72.4622609 C59.3989192,71.4758478 61.8854476,68.9423804 63.1589738,68.9423804 C64.8028493,68.9423804 66.9867576,70.3323261 67.3470197,72.3051522 C67.7072817,74.2779783 67.4435699,76.1535978 66.8289629,77.0804674 C66.0861026,78.20175 64.9379476,78.8743043 64.9379476,78.8743043 L64.9379476,78.8743043 Z" id="Shape"/>
                <path d="M92.9933515,58.6305978 C92.9933515,58.6305978 92.9483188,56.7474457 92.1600655,55.0884783 C91.7205459,54.1634022 90.6062555,52.6446848 90.6062555,52.6446848 C90.6062555,52.6446848 93.6234498,51.1202283 94.8393341,50.0441413 C96.0552183,48.9680543 97.4962664,46.9952283 98.0366594,46.9055543 C98.5770524,46.8158804 100.445011,47.6433913 100.603886,49.610837 C100.761681,51.5614239 99.6581987,53.6612283 98.8025764,54.5131304 C97.7902402,55.5214239 92.9933515,58.6305978 92.9933515,58.6305978 L92.9933515,58.6305978 Z" id="Shape"/>
                <path d="M2.72502183,41.7493043 C2.72502183,41.7493043 0.0551200873,37.6347065 0.15058952,34.6650652 C0.240655022,31.8625761 1.50157205,30.9884348 2.43212882,30.6896413 C2.77005459,31.6312174 3.35620087,32.8554457 4.09834061,34.1270217 C5.06672489,35.7859891 5.29188865,35.965337 5.74221616,36.795 C5.53938865,37.0417826 4.77383188,37.9159239 4.23343886,38.8575 C3.69304585,39.7990761 2.72502183,41.7493043 2.72502183,41.7493043 L2.72502183,41.7493043 Z" id="Shape"/>
            </g>
            <g id="white" transform="translate(1.441048, 1.434783)" fill="#FFFFFF" sketch:type="MSShapeGroup">
                <path d="M42.06131,156.591815 C43.6223253,157.458783 47.1525328,158.86738 52.5089083,158.654315 C58.5133952,158.415424 62.5512118,156.860837 65.8386026,155.426054 C69.1259934,153.991272 72.3233188,151.734359 72.99881,149.851207 C73.0269105,149.671859 72.9480131,149.688717 72.8918122,149.655 C73.2070415,149.559587 73.9444978,148.050196 73.9444978,148.050196 C73.9444978,148.050196 75.0274454,148.501435 76.1287664,149.469913 C77.2297271,150.438391 78.5007314,152.512011 78.9658297,154.648761 C79.2587227,155.99387 79.363559,158.265848 79.0032969,160.059326 C78.6934716,161.603152 77.7272489,162.55513 77.8021834,163.900239 C78.2373799,163.915304 78.4629039,163.58638 78.7781332,163.317359 C79.0933624,163.048337 79.2201747,165.974217 80.0390502,167.681609 C80.9995087,169.684207 83.3790393,169.476522 84.3920961,169.295739 C85.5629476,169.08662 87.3343559,168.623185 87.5144869,166.605522 C87.5595197,165.439761 86.3036463,166.349772 85.3529148,167.382457 C84.8575546,167.9205 82.5770961,168.449935 81.690131,167.382457 C80.609345,166.082185 80.4483079,164.082098 81.4048035,162.316239 C82.8458515,159.656152 84.0768668,158.773761 85.4278493,158.101207 C86.7788319,157.428652 88.8946507,156.999293 90.8018777,157.862315 C93.443679,159.057848 95.6974782,161.076587 97.0163974,163.482 C98.2621834,165.753978 98.8926419,166.844413 98.8025764,172.583543 C98.7125109,178.322674 97.6767576,182.313163 97.2264301,184.241152 C96.7761026,186.169141 95.7868231,190.269391 93.2185153,191.908272 C91.462238,193.029196 88.6619214,194.294315 87.1163974,194.531413 C84.7746943,194.890109 81.4422707,195.047217 78.1321834,194.688522 C75.0324891,194.352424 72.593155,193.320815 71.152107,192.199891 C69.711059,191.078967 68.7426747,190.204467 68.5625437,188.09713 C68.3824127,185.989793 69.0579039,184.084043 69.8684934,182.738935 C70.679083,181.393826 73.1108515,178.658772 74.5295633,178.367152 C75.1293996,178.243761 79.0555349,179.914207 82.0500328,179.936446 C84.4818013,179.954739 86.1483734,179.114674 86.8688974,177.948913 C87.4319869,176.880359 86.6887664,177.186685 85.4952183,177.851707 C84.5570961,178.262772 84.0693013,178.023522 83.9644651,177.933848 C83.8967358,177.78463 84.9778821,177.164087 84.6172598,176.573674 C83.6341048,176.574033 82.9816703,177.784989 80.887107,177.829467 C80.0768777,177.846685 76.3161026,177.85888 73.8843341,176.468935 C71.4525655,175.078989 70.657107,173.39025 70.6120742,171.955467 C70.5670415,170.520685 70.7954476,168.703891 71.3325983,167.426935 C71.6816921,166.597272 71.5916266,166.32287 71.377631,166.216337 C71.0335808,166.04488 69.8353493,167.544587 69.4131223,169.399761 C68.4731987,170.341337 65.4134934,170.946815 63.8348253,170.946815 C61.6282205,170.946815 58.4971834,171.561261 52.8468341,169.668783 C50.3700328,168.83912 47.8705349,166.440522 46.5195524,164.736717 C45.1685699,163.032913 42.30881,159.102685 42.06131,156.591815 L42.06131,156.591815 Z" id="Shape"/>
                <path d="M69.0359279,181.416424 C69.0359279,181.416424 67.6698144,183.748304 67.3996179,185.735837 C67.1888646,187.287554 67.4446507,189.293022 67.7148472,190.069957 C67.9086681,190.62737 66.4121397,192.04888 64.8777838,192.849848 C61.8155568,194.448913 58.2277074,194.695696 55.0606441,194.762772 C51.5181878,194.837739 42.0162773,194.688163 38.1283297,193.806489 C35.188952,193.140033 32.6429803,191.958848 31.5985808,190.832185 C29.7972707,188.88913 28.9567795,187.290065 28.506452,185.675935 C28.0561245,184.061804 27.966059,179.996707 29.752238,178.352446 C32.3115393,175.996891 34.7660044,175.991152 37.2428057,175.856641 C39.719607,175.72213 41.0406878,175.931609 42.4215721,176.051054 C42.5718013,176.289946 44.4030131,178.008815 47.0448144,179.040065 C48.8882751,179.759609 52.0434498,180.011413 53.2892358,179.832065 C54.2907642,179.68787 52.6342795,178.896946 50.5872707,178.44212 C48.7708297,178.038587 48.3655349,177.979043 46.7443559,177.171978 C45.1231769,176.364913 43.6216048,175.560717 43.5920633,174.302413 C43.5470306,172.381957 45.8663974,170.095272 46.8794541,169.803652 C47.3186135,169.677033 47.1946834,170.072674 48.0351747,169.953228 C48.6350109,169.868217 47.2544869,168.847011 47.8251419,168.817239 C48.1335262,168.801098 48.8475655,169.540011 49.8364847,170.132576 C51.156845,170.924217 52.6890393,171.486652 52.3583188,171.537587 C50.7973035,171.776837 49.3785917,170.244848 49.0410262,170.476207 C48.3655349,170.939641 50.2868122,172.0455 52.2084498,172.882696 C53.6494978,173.510413 56.0211026,174.00362 56.2912991,174.13813 C56.5614956,174.272641 55.9310371,174.61663 56.2912991,175.632815 C56.5013319,176.224663 56.9793996,174.650348 62.1455568,175.005098 C64.7574563,175.184446 67.9097489,177.246587 68.4051092,179.936804 C68.4616703,180.241696 68.6681004,181.431489 69.0359279,181.416424 L69.0359279,181.416424 Z" id="Shape"/>
                <path d="M64.4425873,86.0482174 C62.946059,84.4613478 61.9441703,84.3738261 59.8492467,84.434087 C57.5075437,84.5015217 55.8218777,85.6489891 54.5804148,86.496587 C53.7921616,87.0346304 52.9365393,88.0884783 52.9365393,87.4607609 C52.9365393,86.9445978 53.8429585,86.0091196 53.8429585,86.0091196 L53.8937555,85.2806087 C53.8937555,85.2806087 53.2895961,85.854163 53.1094651,85.0919348 C52.9293341,84.3297065 52.3176092,83.0965109 50.3775983,82.6409674 C48.3734607,82.17 46.6885153,83.4964565 45.9344869,84.4046739 C46.3624782,85.2192717 46.7000437,85.7573152 47.0379694,86.6540543 C47.6233952,84.1880217 49.3685044,84.07575 49.9877948,84.5689565 C50.7382205,85.5704348 49.7770415,87.8284239 48.8843122,88.3800978 C48.1713537,88.8209348 47.9386245,88.5820435 47.4205677,88.3575 C47.7584934,89.3216739 47.5556659,92.9983043 47.5556659,92.9983043 L48.0809279,92.849087 C48.0809279,92.849087 48.5575546,92.5556739 49.8746725,92.6622065 C50.9554585,92.7070435 51.518548,92.5050978 51.6536463,92.6396087 C51.7887445,92.7741196 52.4811681,94.317587 53.3648908,95.5540109 C53.9204148,96.3313043 55.1662009,97.2129783 57.8231332,97.3923261 C60.0488319,97.5426196 61.6782969,96.735913 62.6866703,96.0023804 C63.8575218,95.1504783 65.1634716,93.9847174 65.8389629,91.2945 C66.1170852,90.1850543 66.1761681,87.8865326 64.4425873,86.0482174 L64.4425873,86.0482174 Z M59.2411245,88.312663 C59.1211572,89.38875 58.5404148,90.4078043 58.0025437,90.9358043 C56.4087445,92.5004348 55.2436572,90.8927609 55.0527183,90.26325 C54.6924563,89.0748913 57.0013755,86.7795978 57.6646179,86.7659674 C58.7684607,86.7433696 59.361452,87.2365761 59.2411245,88.312663 L59.2411245,88.312663 Z" id="Shape"/>
                <path d="M41.8512773,80.8324239 C41.2208188,80.4887935 39.4944432,80.0852609 38.3686245,80.0852609 C37.2428057,80.0852609 36.2369541,80.0554891 35.5765939,80.3094457 C35.0812336,79.995587 33.1408624,75.3870652 35.7567249,73.4045543 C38.7739192,71.1178696 42.1964083,70.5349891 47.2400764,70.4453152 C52.2837445,70.3556413 56.5168231,70.4004783 61.425393,70.6695 C66.3339629,70.9385217 73.6743013,72.4629783 74.8001201,72.776837 C75.9259389,73.0906957 76.5563974,72.9561848 75.2054148,72.1491196 C73.8544323,71.3420543 67.0544869,69.9521087 64.5326528,69.683087 C62.0108188,69.4140652 50.2572707,69.1002065 49.8069432,69.0553696 C49.3566157,69.0105326 51.0228275,68.1586304 51.5181878,66.1858043 C51.8395415,64.9056196 51.6082533,63.7197717 50.8877293,63.495587 C50.1672052,63.2714022 50.5274672,64.526837 50.2572707,65.6925978 C49.9870742,66.8583587 49.0413865,68.7863478 48.1407314,68.9656957 C47.2400764,69.1450435 43.7725546,69.1002065 41.1156223,69.593413 C39.3802402,69.9155217 36.6573799,70.6695 35.0812336,71.9697717 C33.5050873,73.2700435 32.7845633,75.2428696 32.8295961,77.2156957 C32.878952,79.3840109 34.1355459,80.8474891 33.9554148,80.982 C33.7752838,81.1165109 31.2984825,82.0358478 29.9925328,84.2776957 C28.410262,86.9937391 28.1685262,89.5684565 28.506452,91.5190435 C28.7795306,93.0962283 29.226976,94.1644239 30.2627293,95.8233913 C29.587238,96.8098043 28.501048,99.1122717 28.4837555,101.450609 C28.461059,104.52212 29.258679,106.788717 29.9024672,108.19875 C31.028286,110.664783 32.3943996,112.131848 33.0846616,112.936402 C33.8801201,113.863272 35.1561681,115.148478 36.2668559,116.134891 C35.7264629,116.359076 33.8707533,116.118033 33.5497598,116.00038 C32.9794651,115.350065 31.5531878,113.818435 30.5174345,113.14588 C29.4816812,112.473326 27.4253057,112.024957 25.9842576,112.32375 C25.0101092,112.525696 23.1471943,111.038543 22.0664083,109.962457 C20.9856223,108.88637 18.523952,104.671696 18.148559,102.235435 C17.5162991,98.1323152 17.6276201,94.4065435 18.0134607,91.653913 C18.4637882,88.4407174 19.8749345,85.3021304 20.9856223,83.0900543 C22.2602293,80.5519239 23.5524891,79.6824457 23.5074563,79.0547283 C23.4624236,78.4270109 21.751179,79.563 20.5352948,81.38625 C19.4656769,82.990337 17.5631332,86.8861304 16.7525437,90.6825652 C15.8108188,95.0920109 16.3922817,100.217772 16.6023144,101.622783 C16.6599563,102.006946 13.2850218,101.56288 11.6638428,101.024837 C10.1424563,100.520152 4.90893013,97.3033696 2.65729258,92.1022826 C0.405655022,86.9011957 -0.269836245,83.3142391 -0.157434498,78.5837609 C-0.0162117904,72.6573913 2.49769651,66.2385326 3.7153821,63.9220761 C5.22415939,61.0525109 7.64295852,58.1976522 9.38950873,56.2101196 C11.5961135,53.69925 13.5101856,53.4076304 13.5552183,52.82475 C13.6002511,52.2418696 12.3411354,52.1095109 11.258548,52.9592609 C6.68754367,56.5462174 5.28576419,59.7034565 4.99899563,59.2364348 C4.00827511,57.6223043 2.11689956,54.4837174 2.16193231,47.9375217 C2.18967249,43.9021957 3.4441048,37.880413 6.16984716,33.5896957 C9.50227074,28.3437717 13.897107,26.173663 16.5273799,25.0480761 C19.409476,23.8148804 26.1870852,23.5236196 27.5153712,23.6803696 C28.6217358,23.8109348 27.6054367,22.8507065 26.2544541,22.8507065 C24.9034716,22.8507065 24.3356987,23.1308478 24.2730131,22.6935978 C24.0928821,21.438163 25.1099017,16.0419457 27.8306004,12.9191413 C31.0729585,9.19767391 33.3854803,7.66819565 38.0080022,6.23843478 C42.6463755,4.80365217 45.4834389,4.71648913 49.7615502,4.84848913 C55.5707751,5.02783696 64.0027074,8.42683696 66.1311354,10.184087 C67.0544869,10.9463152 66.4240284,9.5786087 65.3428821,8.50252174 C64.25381,7.41818478 62.2129258,6.6416087 61.7625983,6.41742391 C61.3980131,6.23592391 64.9458734,3.3491413 69.2005677,1.7246087 C73.5838755,0.050576087 78.1736135,-0.252163043 81.284476,-0.0839347826 C84.8719651,0.110478261 89.3150764,1.22638043 92.6327293,3.00981522 C96.5804803,5.13221739 100.468428,9.15247826 101.233985,10.0940543 C101.999541,11.0356304 104.701507,14.1293804 104.476343,14.8467717 C104.251179,15.564163 100.918755,16.7299239 100.783657,18.3440543 C100.652162,19.9155 102.810131,16.3263913 108.259094,15.1157935 C113.708057,13.9051957 119.917172,13.07625 124.290753,14.0397065 C129.379454,15.1606304 134.092762,18.6876848 136.02917,20.7950217 C137.965579,22.9023587 140.434454,26.7543913 141.493264,29.1644674 C142.648985,31.7947826 143.474705,35.6059239 143.744902,35.7404348 C144.015098,35.8749457 144.405262,33.648163 143.985197,32.4522717 C143.689061,31.6089783 149.058766,34.0814674 150.950142,36.4578261 C152.841517,38.8341848 155.99381,44.6629891 155.948777,51.1643478 C155.903745,57.6657065 153.340841,63.0805761 152.188362,64.6380326 C150.927445,66.341837 147.73012,68.8975435 147.685087,69.0546522 C147.590699,69.3832174 150.161889,68.20275 151.310404,67.3060109 C152.433701,66.4286413 152.916812,65.8263913 153.577172,65.0792283 C154.372631,65.2585761 156.061539,66.3870326 157.457555,67.9563261 C158.85357,69.5256196 161.308035,73.0229022 162.073592,76.8340435 C162.643526,79.6716848 162.546616,84.8824565 161.735666,88.1107174 C160.961823,91.1940652 160.136823,93.9172826 158.133046,96.2710435 C157.005066,97.5957065 153.629771,100.396043 153.213308,100.586511 C153.09298,99.7195435 152.805852,98.5394348 152.098657,96.9435978 C151.08524,94.656913 148.951408,93.8667065 149.599159,94.746587 C150.34238,95.7555978 151.75893,98.9895978 151.535568,102.413707 C151.310404,105.866152 149.914389,109.789565 147.752817,113.174576 C146.352118,115.368 143.399771,118.211022 140.592609,120.03463 C137.41762,122.09713 133.792303,123.029739 130.9556,123.173217 C126.970022,123.375163 123.209967,122.007457 121.543755,121.424576 C119.877544,120.841696 119.438384,120.455022 118.988057,120.656609 C119.461081,120.325891 122.099279,116.358 123.345066,113.398761 C125.79845,107.571033 125.641736,105.716935 125.821867,104.072674 C125.954443,102.861717 125.596703,100.88925 125.371539,100.934087 C125.146376,100.978924 125.281474,103.295739 124.380819,106.449033 C123.403788,109.869196 121.558886,113.907033 120.508002,115.685446 C119.229793,117.84838 116.532511,121.609304 116.241059,121.379739 C115.756867,120.998446 114.766146,120.05687 113.933221,119.743011 C113.254127,119.487261 112.469476,119.653337 112.041845,119.944957 C111.699236,120.178109 109.700142,122.523261 108.101299,123.666424 C107.061223,124.41 102.164541,126.558587 102.29964,126.984359 C102.023679,127.157967 102.1069,127.10237 102.021878,127.163707 C101.796714,126.81075 100.603166,125.930511 99.3872817,125.684087 C97.5333734,125.308174 95.4395306,126.282033 93.2177948,127.417663 C92.4295415,127.395065 89.1951092,126.760174 87.3635371,125.833663 C86.9931878,125.646424 89.2250109,125.355163 90.9211245,123.352565 C92.196452,121.846761 93.4231441,119.130717 93.5780568,117.568598 C93.7358515,115.976707 93.6007533,114.00388 92.8802293,112.778576 C93.2628275,112.754185 95.2493122,110.636087 96.2800218,108.616272 C97.7210699,105.791543 99.1621179,101.9205 99.8826419,99.4993043 C100.55417,97.2423913 101.383854,94.1787717 101.563985,88.8880109 C101.672784,85.6984891 100.820764,78.2598587 100.5131,76.5427826 C99.8376092,72.7764783 97.8111354,66.5889783 95.5144651,62.5984891 C94.1854585,60.2892065 91.7767467,56.9041957 91.2363537,56.2316413 C90.6959607,55.559087 85.8774563,50.0889783 82.5900655,47.8471304 C79.9511463,46.0475543 73.268286,41.9286522 65.7928493,40.1351739 C58.3174127,38.3416957 52.8684498,37.983 47.2843886,39.01425 C44.8165939,39.4701522 41.8354258,40.7628913 39.1334607,43.2289239 C36.9870197,45.1877609 35.7109716,47.904163 35.7109716,50.9857174 C35.7109716,54.0794674 36.8519214,56.3661522 39.0585262,58.1596304 C40.2927838,59.1629022 46.2036026,62.0156087 51.6075328,63.5400652 C57.0114629,65.0645217 60.7643122,66.021163 64.6371288,66.8282283 C66.383679,67.1923043 69.8908297,66.9476739 70.206059,66.6338152 C70.5212882,66.3199565 64.0816048,65.3335435 62.4604258,64.7955 C60.8392467,64.2574565 53.0485808,62.4191413 51.2923035,61.70175 C49.5360262,60.9843587 44.3122271,59.594413 40.4844432,57.1732174 C38.8575,56.1441196 36.9938646,53.4650217 37.1069869,51.2099022 C37.2420852,48.5196848 38.115,45.635413 41.2950328,43.184087 C44.0870633,41.031913 46.5638646,40.1351739 51.5625,39.9109891 C56.5611354,39.6868043 58.3491157,39.8431957 63.7663755,40.9870761 C69.7106987,42.2425109 77.2563865,45.9040761 80.4284934,47.9816413 C83.8509825,50.2234891 88.5343886,54.0346304 90.3356987,56.3661522 C91.8138537,58.2790761 93.9383188,62.0156087 95.1091703,64.4368043 C95.9579476,66.1926196 98.3064956,72.8213152 99.2521834,77.4395217 C99.6776528,79.5160109 100.332969,87.1243043 100.062773,91.1596304 C99.8603057,94.178413 98.8468886,98.5128913 97.4959061,102.189522 C96.3866594,105.208304 93.2930895,111.203185 93.0996288,111.807228 C92.9306659,112.334152 92.8953603,112.547217 92.8805895,112.778935 C92.549869,112.21112 91.6193122,110.59663 88.5797817,109.453467 C86.0856878,108.515478 81.1792795,107.899239 78.9128712,108.437283 C78.9128712,107.719891 78.9258406,107.194761 78.9258406,107.194761 C78.9258406,107.194761 79.2580022,107.480641 79.4831659,107.34613 C79.7083297,107.21162 80.2714192,103.43025 80.0685917,101.322913 C79.6395197,96.859663 79.0703057,94.4033152 78.3274454,92.1166304 C77.7113974,90.2212826 75.2648581,85.6751739 73.8241703,84.1058804 C72.3831223,82.536587 71.0905022,81.4698261 70.6567467,81.7948043 C70.5890175,81.7722065 70.4823799,81.7273696 70.4823799,81.7273696 C70.4823799,81.7273696 71.033941,79.8162391 70.6344105,78.5382065 C70.268024,77.3670652 69.4174454,76.5926413 68.2249782,76.6102174 C66.7162009,76.6328152 65.1400546,77.3724457 63.608941,78.5608043 C62.639476,79.3129891 60.4566485,81.1165109 59.5109607,81.026837 C58.5652729,80.937163 58.7227074,79.905913 59.3531659,78.5608043 C59.9836245,77.2156957 59.9385917,77.0363478 59.4882642,77.0363478 C59.0379367,77.0363478 58.3775764,78.3663913 58.3775764,78.3663913 L56.1861026,78.2318804 C56.1861026,78.2318804 56.9217576,77.0811848 56.8316921,76.812163 C56.7416266,76.5431413 55.8179148,77.241163 54.9853493,78.2469457 C54.1408952,79.2670761 53.6793996,79.7714022 53.4992686,79.3678696 C53.3191376,78.964337 54.1297271,76.6998913 53.9045633,74.839337 C53.791441,73.9027826 53.5666376,73.4267935 52.6659825,73.4267935 C51.7653275,73.4267935 49.2359279,75.5714348 49.0107642,77.3200761 C48.3035699,77.8541739 47.774345,78.246587 47.0444541,78.7846304 C46.6596943,78.21825 43.9523253,76.0047391 40.8000328,76.184087 C37.5612773,76.3684565 41.655655,79.0984891 42.4212118,79.233 C43.1867686,79.3675109 43.9973581,78.9191413 42.9616048,78.4259348 C41.9258515,77.9327283 42.196048,77.6188696 43.0516703,77.9327283 C43.9072926,78.246587 45.3105131,78.8552935 44.9279148,79.0238804 C43.3672598,79.7115 42.2115393,80.5035 41.8512773,80.8324239 L41.8512773,80.8324239 Z" id="Shape"/>
            </g>
            <g id="turqouise" transform="translate(20.895197, 114.065217)" fill="#13BDCE" sketch:type="MSShapeGroup">
                <path d="M56.6818231,21.0644022 L56.4116266,12.8144022 L57.7928712,13.3226739 L58.0029039,20.8552826 L56.6818231,21.0644022 Z" id="Shape"/>
                <path d="M59.9245415,20.735837 L59.654345,13.7115 L61.3655895,13.7115 L61.4855568,20.646163 L59.9245415,20.735837 Z" id="Shape"/>
                <path d="M63.5271616,20.6762935 L63.3769323,13.6218261 L65.2982096,13.47225 L65.1180786,20.735837 L63.5271616,20.6762935 Z" id="Shape"/>
                <path d="M67.0696179,20.9151848 L67.1596834,14.1896413 L68.5409279,14.7276848 L68.8709279,20.8556413 L67.0696179,20.9151848 Z" id="Shape"/>
                <path d="M70.7922052,21.3484891 L70.657107,15.2058261 L72.3460153,15.6319565 C72.3460153,15.6319565 72.210917,16.3719457 72.3460153,16.6858043 C72.4811135,16.999663 72.9541376,16.8651522 72.9541376,16.8651522 C72.9541376,16.8651522 72.1208515,19.8692283 71.9183843,22.20075 C71.4676965,22.1107174 70.7922052,21.3484891 70.7922052,21.3484891 L70.7922052,21.3484891 Z" id="Shape"/>
                <path d="M73.8994651,23.2764783 C73.8994651,23.2764783 74.2597271,18.2547391 74.5299236,17.313163 C74.7785044,16.4465543 74.4171616,16.1025652 74.4171616,16.1025652 L75.8657751,15.2955 C75.8657751,15.2955 75.2428821,22.9475543 76.3535699,23.7474457 C75.5656769,23.9267935 74.2597271,23.6351739 73.8994651,23.2764783 L73.8994651,23.2764783 Z" id="Shape"/>
                <path d="M77.2542249,23.8371196 C78.2968231,23.3582609 77.6371834,14.6007065 77.8623472,14.4213587 C78.0875109,14.2420109 78.6430349,13.9952283 78.9582642,14.219413 C79.2734934,14.4435978 79.9785262,23.3475 79.4085917,23.8744239 C78.9881659,24.2628913 76.9616921,23.9716304 77.2542249,23.8371196 L77.2542249,23.8371196 Z" id="Shape"/>
                <path d="M81.6450983,23.6800109 C82.215393,21.0794674 80.9699672,15.4450761 81.0297707,15.1161522 C81.1475764,14.4672717 82.7204803,17.1262826 83.0861463,17.358 C83.3340066,17.5151087 83.4691048,15.7887065 82.5680895,14.5332717 C82.7874891,14.376163 82.6880568,14.4604565 82.8458515,14.3539239 C82.9157424,14.441087 83.1088428,14.6530761 83.9421288,14.5185652 C85.5330459,15.6843261 86.7939629,20.2874674 86.5839301,21.6627065 C86.2838319,21.9317283 85.9538319,22.1706196 85.2931114,22.3499674 C85.2931114,21.1616087 84.5574563,17.4925109 84.0620961,17.358 C83.5667358,17.2234891 82.9380786,17.3770109 82.9211463,18.194837 C82.8984498,19.2935217 83.6416703,22.7621087 83.3116703,23.0673587 C82.6812118,23.6502391 81.6450983,23.6800109 81.6450983,23.6800109 L81.6450983,23.6800109 Z" id="Shape"/>
                <path d="M23.5978821,8.03191304 C23.5978821,8.03191304 21.0310153,11.8430543 20.175393,13.5916957 C19.6800328,13.3000761 18.9890502,12.8821957 19.0495742,12.6052826 C19.274738,11.5740326 21.9316703,7.69545652 22.4720633,7.40419565 C22.5974345,7.33676087 23.5978821,8.03191304 23.5978821,8.03191304 L23.5978821,8.03191304 Z" id="Shape"/>
                <path d="M17.3383297,11.4395217 C16.9330349,11.3946848 16.5306223,10.9915109 16.5727729,10.6772935 C16.7529039,9.33218478 19.1173035,5.76746739 19.5449345,5.56588043 C19.7077729,5.48911957 20.715786,6.28327174 20.7608188,6.41778261 C19.7924345,7.06809783 17.3383297,11.4395217 17.3383297,11.4395217 L17.3383297,11.4395217 Z" id="Shape"/>
                <path d="M15.1317249,9.60120652 C15.0877729,9.75723913 14.3730131,9.60013043 14.3211354,9.33218478 C14.2083734,8.74930435 15.2268341,4.56045652 15.6270852,4.62430435 C16.1901747,4.71397826 17.0457969,4.6691413 17.3833624,4.57946739 C16.9103384,5.1401087 15.2891594,9.04092391 15.1317249,9.60120652 L15.1317249,9.60120652 Z" id="Shape"/>
                <path d="M13.6456441,3.72756522 C14.0509389,3.86207609 14.0509389,3.72756522 14.0959716,3.36886957 C14.3380677,3.43056522 14.1691048,3.41944565 14.4112009,3.43630435 C13.6514083,3.66802174 12.5572926,6.82167391 12.0694978,10.4534674 C11.8666703,10.7224891 10.9887118,10.9915109 10.5383843,10.7673261 C9.99799127,10.2515217 11.5968341,4.69173913 13.1052511,3.36922826 C13.1953166,3.34663043 13.2176528,3.39146739 13.6456441,3.72756522 L13.6456441,3.72756522 Z" id="Shape"/>
                <path d="M8.24171397,10.6772935 C7.3860917,10.8344022 6.32764192,10.1335109 6.39537118,9.73571739 C6.64323144,8.27833696 8.56450873,2.95063043 10.2980895,1.78486957 C10.681048,1.82970652 11.2589083,2.0463587 11.3940066,2.56180435 C10.9209825,3.05501087 8.26405022,6.93358696 8.24171397,10.6772935 L8.24171397,10.6772935 Z" id="Shape"/>
                <path d="M4.47409389,8.83897826 C4.44419214,9.13813043 2.8230131,8.09181522 2.79275109,7.7628913 C2.70052402,6.75423913 3.69340611,4.47508696 4.35376638,3.399 C4.19597162,4.56476087 4.36889738,4.24336957 4.57136463,4.82625 C5.40465066,3.21211957 5.90001092,1.70990217 7.2960262,0.947673913 C7.81408297,0.813163043 8.09148472,0.783391304 8.13651747,1.00757609 C7.3709607,1.85947826 4.83543668,5.24592391 4.47409389,8.83897826 L4.47409389,8.83897826 Z" id="Shape"/>
                <path d="M0.931277293,6.14876087 C0.690982533,5.99954348 -0.0295414847,5.40159783 -0.0295414847,4.95322826 C-0.0295414847,3.42446739 2.28225983,0.0509347826 2.73258734,0.0509347826 C3.12275109,0.0509347826 3.42320961,0.0211630435 3.51327511,0.469532609 C3.60334061,0.917902174 2.04232533,2.32291304 0.931277293,6.14876087 L0.931277293,6.14876087 Z" id="Shape"/>
            </g>
        </g>
    </g>
</svg>