<?xml version="1.0" encoding="UTF-8" standalone="no"?>
<svg width="198px" height="198px" viewBox="0 0 198 198" version="1.1" xmlns="http://www.w3.org/2000/svg" xmlns:xlink="http://www.w3.org/1999/xlink" xmlns:sketch="http://www.bohemiancoding.com/sketch/ns">
    <!-- Generator: Sketch 3.1.1 (8761) - http://www.bohemiancoding.com/sketch -->
    <title>itlogo</title>
    <desc>Created with Sketch.</desc>
    <defs>
        <path id="path-1" d="M0,200 L200,200 L200,0 L0,0"></path>
    </defs>
    <g id="Page-1" stroke="none" stroke-width="1" fill="none" fill-rule="evenodd" sketch:type="MSPage">
        <g id="itlogo" sketch:type="MSLayerGroup" transform="translate(-1.000000, -1.000000)">
            <g id="Group-4" sketch:type="MSShapeGroup">
                <path d="M105.489795,22.5711902 C103.764625,22.4553492 102.029931,22.3763048 100.274829,22.3763048 C91.9265295,22.3763048 83.8938766,23.7132456 76.3591828,26.1568082 C76.982312,27.8603516 77.3401351,29.6892757 77.3401351,31.6081469 C77.3401351,40.3698111 70.2503393,47.4715426 61.5034006,47.4715426 C56.544217,47.4715426 52.1224484,45.184706 49.219047,41.6113535 C44.7102036,45.5676626 40.6680267,50.0336718 37.1741492,54.9276111 L105.489795,54.9276111 L105.489795,22.5711902 L105.489795,22.5711902 Z M137.749658,32.0456169 L137.749658,54.9276111 L163.375508,54.9276111 C156.658502,45.5186005 147.906121,37.6727612 137.749658,32.0456169 L137.749658,32.0456169 Z M168.087073,62.3700513 L137.749658,62.3700513 L137.749658,125.818183 C137.749658,125.818183 136.183672,141.486693 153.389114,141.486693 L165.863944,141.486693 C173.42993,129.492385 177.825848,115.29301 177.825848,100.057882 C177.825848,86.3791099 174.284352,73.5330302 168.087073,62.3700513 L168.087073,62.3700513 Z M105.489795,125.818183 L105.489795,78.2320842 C105.489795,62.3700513 89.6557813,62.3700513 89.6557813,62.3700513 L79.0993188,62.3700513 L79.0993188,125.818183 C79.0993188,141.681578 94.9333322,141.681578 94.9333322,141.681578 L94.9333322,152.157689 L42.7564621,152.157689 C56.9469381,167.867084 77.459863,177.739458 100.274829,177.739458 C123.091155,177.739458 143.602719,167.867084 157.793195,152.157689 L153.389114,152.157689 C153.389114,152.157689 105.489795,154.918792 105.489795,125.818183 L105.489795,125.818183 Z M47.4272103,78.2320842 C47.4272103,64.581932 35.7074826,62.6794148 32.4380949,62.4150249 C26.255782,73.5671011 22.7238093,86.3968267 22.7238093,100.057882 C22.7238093,115.280745 27.1129249,129.467854 34.6653057,141.455348 C47.4190471,139.543291 47.4272103,125.818183 47.4272103,125.818183 L47.4272103,78.2320842 L47.4272103,78.2320842 Z" id="Fill-1" fill="#00A9D3"></path>
                <path d="M105.489795,22.5711902 C103.764625,22.4553492 102.029931,22.3763048 100.274829,22.3763048 C91.9265295,22.3763048 83.8938766,23.7132456 76.3591828,26.1568082 C76.982312,27.8603516 77.3401351,29.6892757 77.3401351,31.6081469 C77.3401351,40.3698111 70.2503393,47.4715426 61.5034006,47.4715426 C56.544217,47.4715426 52.1224484,45.184706 49.219047,41.6113535 C44.7102036,45.5676626 40.6680267,50.0336718 37.1741492,54.9276111 L105.489795,54.9276111 L105.489795,22.5711902 L105.489795,22.5711902 Z M137.749658,32.0456169 L137.749658,54.9276111 L163.375508,54.9276111 C156.658502,45.5186005 147.906121,37.6727612 137.749658,32.0456169 L137.749658,32.0456169 Z M168.087073,62.3700513 L137.749658,62.3700513 L137.749658,125.818183 C137.749658,125.818183 136.183672,141.486693 153.389114,141.486693 L165.863944,141.486693 C173.42993,129.492385 177.825848,115.29301 177.825848,100.057882 C177.825848,86.3791099 174.284352,73.5330302 168.087073,62.3700513 L168.087073,62.3700513 Z M105.489795,125.818183 L105.489795,78.2320842 C105.489795,62.3700513 89.6557813,62.3700513 89.6557813,62.3700513 L79.0993188,62.3700513 L79.0993188,125.818183 C79.0993188,141.681578 94.9333322,141.681578 94.9333322,141.681578 L94.9333322,152.157689 L42.7564621,152.157689 C56.9469381,167.867084 77.459863,177.739458 100.274829,177.739458 C123.091155,177.739458 143.602719,167.867084 157.793195,152.157689 L153.389114,152.157689 C153.389114,152.157689 105.489795,154.918792 105.489795,125.818183 L105.489795,125.818183 Z M47.4272103,78.2320842 C47.4272103,64.581932 35.7074826,62.6794148 32.4380949,62.4150249 C26.255782,73.5671011 22.7238093,86.3968267 22.7238093,100.057882 C22.7238093,115.280745 27.1129249,129.467854 34.6653057,141.455348 C47.4190471,139.543291 47.4272103,125.818183 47.4272103,125.818183 L47.4272103,78.2320842 L47.4272103,78.2320842 Z" id="Stroke-3" stroke="#1A1918"></path>
            </g>
            <g id="Group-8" sketch:type="MSShapeGroup">
                <path d="M105.489795,22.5711902 C103.764625,22.4553492 102.029931,22.3763048 100.274829,22.3763048 C91.9265295,22.3763048 83.8938766,23.7132456 76.3591828,26.1568082 C76.982312,27.8603516 77.3401351,29.6892757 77.3401351,31.6081469 C77.3401351,40.3698111 70.2503393,47.4715426 61.5034006,47.4715426 C56.544217,47.4715426 52.1224484,45.184706 49.219047,41.6113535 C44.7102036,45.5676626 40.6680267,50.0336718 37.1741492,54.9276111 L105.489795,54.9276111 L105.489795,22.5711902 L105.489795,22.5711902 Z M137.749658,32.0456169 L137.749658,54.9276111 L163.375508,54.9276111 C156.658502,45.5186005 147.906121,37.6727612 137.749658,32.0456169 L137.749658,32.0456169 Z M168.087073,62.3700513 L137.749658,62.3700513 L137.749658,125.818183 C137.749658,125.818183 136.183672,141.486693 153.389114,141.486693 L165.863944,141.486693 C173.42993,129.492385 177.825848,115.29301 177.825848,100.057882 C177.825848,86.3791099 174.284352,73.5330302 168.087073,62.3700513 L168.087073,62.3700513 Z M105.489795,125.818183 L105.489795,78.2320842 C105.489795,62.3700513 89.6557813,62.3700513 89.6557813,62.3700513 L79.0993188,62.3700513 L79.0993188,125.818183 C79.0993188,141.681578 94.9333322,141.681578 94.9333322,141.681578 L94.9333322,152.157689 L42.7564621,152.157689 C56.9469381,167.867084 77.459863,177.739458 100.274829,177.739458 C123.091155,177.739458 143.602719,167.867084 157.793195,152.157689 L153.389114,152.157689 C153.389114,152.157689 105.489795,154.918792 105.489795,125.818183 L105.489795,125.818183 Z M47.4272103,78.2320842 C47.4272103,64.581932 35.7074826,62.6794148 32.4380949,62.4150249 C26.255782,73.5671011 22.7238093,86.3968267 22.7238093,100.057882 C22.7238093,115.280745 27.1129249,129.467854 34.6653057,141.455348 C47.4190471,139.543291 47.4272103,125.818183 47.4272103,125.818183 L47.4272103,78.2320842 L47.4272103,78.2320842 Z" id="Fill-5" fill="#00A9D3"></path>
                <path d="M105.489795,22.5711902 C103.764625,22.4553492 102.029931,22.3763048 100.274829,22.3763048 C91.9265295,22.3763048 83.8938766,23.7132456 76.3591828,26.1568082 C76.982312,27.8603516 77.3401351,29.6892757 77.3401351,31.6081469 C77.3401351,40.3698111 70.2503393,47.4715426 61.5034006,47.4715426 C56.544217,47.4715426 52.1224484,45.184706 49.219047,41.6113535 C44.7102036,45.5676626 40.6680267,50.0336718 37.1741492,54.9276111 L105.489795,54.9276111 L105.489795,22.5711902 L105.489795,22.5711902 Z M137.749658,32.0456169 L137.749658,54.9276111 L163.375508,54.9276111 C156.658502,45.5186005 147.906121,37.6727612 137.749658,32.0456169 L137.749658,32.0456169 Z M168.087073,62.3700513 L137.749658,62.3700513 L137.749658,125.818183 C137.749658,125.818183 136.183672,141.486693 153.389114,141.486693 L165.863944,141.486693 C173.42993,129.492385 177.825848,115.29301 177.825848,100.057882 C177.825848,86.3791099 174.284352,73.5330302 168.087073,62.3700513 L168.087073,62.3700513 Z M105.489795,125.818183 L105.489795,78.2320842 C105.489795,62.3700513 89.6557813,62.3700513 89.6557813,62.3700513 L79.0993188,62.3700513 L79.0993188,125.818183 C79.0993188,141.681578 94.9333322,141.681578 94.9333322,141.681578 L94.9333322,152.157689 L42.7564621,152.157689 C56.9469381,167.867084 77.459863,177.739458 100.274829,177.739458 C123.091155,177.739458 143.602719,167.867084 157.793195,152.157689 L153.389114,152.157689 C153.389114,152.157689 105.489795,154.918792 105.489795,125.818183 L105.489795,125.818183 Z M47.4272103,78.2320842 C47.4272103,64.581932 35.7074826,62.6794148 32.4380949,62.4150249 C26.255782,73.5671011 22.7238093,86.3968267 22.7238093,100.057882 C22.7238093,115.280745 27.1129249,129.467854 34.6653057,141.455348 C47.4190471,139.543291 47.4272103,125.818183 47.4272103,125.818183 L47.4272103,78.2320842 L47.4272103,78.2320842 Z" id="Stroke-7" stroke="#1A1918" stroke-width="3"></path>
            </g>
            <mask id="mask-2" sketch:name="Clip 10" fill="white">
                <use xlink:href="#path-1"></use>
            </mask>
            <g id="Clip-10"></g>
            <path d="M9.3414958,107.368114 L10.7768706,107.196397 L11.0734689,109.691751 L17.9129244,108.879495 L18.1183664,110.61303 L11.2789109,111.426633 L11.5741513,113.921987 L10.1387765,114.092357 L9.3414958,107.368114" id="Fill-9" fill="#1A1918" sketch:type="MSShapeGroup" mask="url(#mask-2)"></path>
            <path d="M10.5469378,98.9976094 L10.6476202,103.29734 L12.4122454,103.256465 L12.3197277,99.3178451 L13.7646252,99.2851515 L13.8571429,103.222391 L16.0027227,103.171953 L15.8979597,98.659596 L17.3850353,98.6241751 L17.5306118,104.841414 L9.2,105.034949 L9.05986555,99.0316498 L10.5469378,98.9976094" id="Fill-11" fill="#1A1918" sketch:type="MSShapeGroup" mask="url(#mask-2)"></path>
            <path d="M9.13605378,95.9979798 L9.27210756,94.299899 L12.699321,94.5738384 L9.52653109,91.0822559 L9.70476303,88.840404 L12.8503395,92.5268687 L18.0258487,89.326936 L17.8489782,91.5578788 L14.0163261,93.8338047 L14.8,94.7414478 L17.5782319,94.9622559 L17.4435361,96.6603367 L9.13605378,95.9979798" id="Fill-12" fill="#1A1918" sketch:type="MSShapeGroup" mask="url(#mask-2)"></path>
            <path d="M10.0680269,86.3654882 L10.4040807,84.5787879 L16.6789109,82.4555219 L11.005442,81.3843098 L11.304763,79.7952525 L19.493879,81.3407071 L19.1727899,83.0456229 L12.7809513,85.2302357 L18.5564639,86.3205051 L18.2571429,87.9109428 L10.0680269,86.3654882" id="Fill-13" fill="#1A1918" sketch:type="MSShapeGroup" mask="url(#mask-2)"></path>
            <path d="M21.1469378,72.8938721 C21.5809513,73.6856566 21.6244908,74.6505387 21.2761916,75.7885185 C20.9278924,76.9264983 20.3523798,77.7019529 19.5496605,78.1135017 C18.5442185,78.6872727 17.3278924,78.7554209 15.899321,78.3165657 C14.4435361,77.8695623 13.4734689,77.1309091 12.9904773,76.1006061 C12.5551025,75.3087879 12.5129244,74.3439057 12.8612235,73.2059596 C13.2095227,72.0679798 13.7850353,71.2925253 14.5877546,70.8809428 C15.5632639,70.3017508 16.7782319,70.2349832 18.2353748,70.6819865 C19.6639462,71.1208081 20.6326521,71.8581145 21.1469378,72.8938721 L21.1469378,72.8938721 Z M19.6081647,73.5629966 C19.2435361,73.0287879 18.6163261,72.6253872 17.7251697,72.3514478 C16.8380941,72.0802357 16.0925176,72.0625253 15.489795,72.2983165 C14.8870756,72.5354209 14.4870756,72.9810774 14.2857143,73.6365993 C14.0857143,74.2935017 14.1673479,74.890404 14.5292504,75.430101 C14.8925176,75.9684175 15.5197277,76.3745455 16.410884,76.6484848 C17.300679,76.9210438 18.0476202,76.9373737 18.6503395,76.6934343 C19.2517008,76.4522222 19.6544202,76.0024916 19.8544202,75.3469697 C20.0557815,74.6914478 19.9727899,74.0958923 19.6081647,73.5629966 L19.6081647,73.5629966 Z" id="Fill-14" fill="#1A1918" sketch:type="MSShapeGroup" mask="url(#mask-2)"></path>
            <path d="M15.2462588,66.9968687 L15.9265311,65.3887205 L22.2285714,68.0612458 L23.8380941,64.2589226 L25.2081647,64.8394949 L22.9197277,70.2513131 L15.2462588,66.9968687" id="Fill-15" fill="#1A1918" sketch:type="MSShapeGroup" mask="url(#mask-2)"></path>
            <path d="M28.3496605,57.323468 C28.6136067,58.1861616 28.4598655,59.1401347 27.8857143,60.1826936 C27.3129244,61.2252525 26.5918353,61.8671717 25.7224504,62.1056566 C24.6217681,62.4627273 23.4163261,62.280101 22.1088437,61.5591582 C20.7741513,60.8232323 19.9755092,59.9019529 19.711563,58.7939731 C19.4476202,57.9299327 19.6027227,56.9773064 20.1755092,55.9347475 C20.7482992,54.8908081 21.4693882,54.2502694 22.3387765,54.0104377 C23.410884,53.6424579 24.6149647,53.8278114 25.9496605,54.5623569 C27.2585042,55.2832997 28.0585042,56.2032323 28.3496605,57.323468 L28.3496605,57.323468 Z M26.7074824,57.6628283 C26.4585042,57.0658923 25.9265311,56.5425589 25.110205,56.0928283 C24.2965983,55.6444444 23.5714286,55.4754545 22.9333345,55.5831313 C22.295237,55.6921549 21.8122454,56.0464983 21.4816336,56.6475084 C21.1510218,57.2485185 21.110205,57.8495286 21.3551025,58.4518855 C21.6013613,59.0542761 22.1319731,59.5789562 22.9482992,60.0286869 C23.7646252,60.4784512 24.4925176,60.6474411 25.1319731,60.532963 C25.7700672,60.4184848 26.2544202,60.0600337 26.5850353,59.4590236 C26.9156471,58.8580135 26.9564639,58.2597306 26.7074824,57.6628283 L26.7074824,57.6628283 Z" id="Fill-16" fill="#1A1918" sketch:type="MSShapeGroup" mask="url(#mask-2)"></path>
            <path d="M29.2081647,47.1172054 C28.6666655,46.8950505 28.1564639,46.9263973 27.6761916,47.2139731 C27.4095227,47.3747811 27.1755092,47.5982828 26.9727899,47.8831313 C26.5877546,48.4309764 26.4748303,49.0251852 26.6380941,49.6684175 C26.8,50.3116835 27.293879,50.9249495 28.1197277,51.5109764 C28.9496605,52.1010774 29.6734689,52.3273064 30.2870756,52.1910438 C30.9020403,52.0561279 31.3809513,51.7453872 31.7238084,51.2602357 C32.0598655,50.7845791 32.2,50.2980471 32.1428571,49.8019865 C32.0870756,49.3045455 31.8625849,48.8657239 31.4721076,48.4827609 L30.3523798,50.0677441 L29.2244908,49.2677441 L31.2272101,46.4357912 L34.8693782,49.0197306 L34.2067899,49.9573401 L33.2639462,49.4858249 C33.3918353,49.9873401 33.4448975,50.3948148 33.4217681,50.7055556 C33.3850353,51.2438721 33.1741513,51.7876431 32.7877546,52.3341414 C32.1496605,53.23633 31.3170084,53.7542088 30.2870756,53.8891246 C29.2380941,54.0458586 28.1714286,53.7392256 27.0857143,52.9692256 C25.989116,52.1910438 25.3224504,51.2643098 25.088437,50.190404 C24.8544202,49.1151178 25.088437,48.0807407 25.7931966,47.0845118 C26.4027227,46.2218182 27.111563,45.6835017 27.9197277,45.4681818 C28.7265311,45.2542088 29.4829916,45.3414141 30.1904773,45.7271044 L29.2081647,47.1172054" id="Fill-17" fill="#1A1918" sketch:type="MSShapeGroup" mask="url(#mask-2)"></path>
            <path d="M35.2163361,44.6082155 C35.5360672,44.8194613 35.8163361,44.9298653 36.0598655,44.9366667 C36.503395,44.950303 36.9523697,44.6981818 37.4095126,44.1816498 C37.6816471,43.8722896 37.8707563,43.590202 37.9727731,43.3380471 C38.1673613,42.8569697 38.0897815,42.4617508 37.7387899,42.1510438 C37.5333445,41.9697643 37.2952269,41.9193603 37.0245042,41.9997643 C36.7564706,42.0828956 36.4081681,42.2832323 35.9795966,42.5993939 L35.2435294,43.1350168 C34.5210756,43.6624242 33.9605378,43.9758586 33.5659866,44.076734 C32.900679,44.2511785 32.2639462,44.0685522 31.6530622,43.5288552 C31.0965983,43.0355219 30.8149647,42.4208754 30.8095227,41.683569 C30.8040807,40.9462963 31.1523798,40.1803704 31.8544202,39.3844781 C32.4408168,38.7194276 33.1156471,38.3064646 33.8775462,38.1456566 C34.6394622,37.9848485 35.3632605,38.1851852 36.0462521,38.7493939 L34.9333445,40.0086532 C34.5387899,39.7006734 34.1251765,39.6311448 33.6938824,39.8015152 C33.4068034,39.9159933 33.1278924,40.1258586 32.8571429,40.4324916 C32.5564639,40.7759259 32.3836739,41.1071044 32.3387765,41.430101 C32.293879,41.7544444 32.3931966,42.0229293 32.6340134,42.2369024 C32.8571429,42.4331313 33.111563,42.4808418 33.3986387,42.3758923 C33.5850353,42.3118519 33.9129412,42.112862 34.3823193,41.7803367 L35.5986555,40.9190236 C36.1306218,40.5415152 36.5972773,40.3166667 36.9972773,40.243064 C37.6176807,40.1313131 38.2054454,40.3193939 38.7591933,40.81 C39.3278992,41.3128956 39.6054454,41.9507071 39.5945546,42.7220539 C39.5823193,43.4947811 39.2231261,44.279798 38.5156303,45.0811448 C37.7932101,45.900202 37.0394622,46.379899 36.2544202,46.5202694 C35.4707563,46.6606397 34.7537479,46.4439731 34.1047731,45.8688552 L35.2163361,44.6082155" id="Fill-18" fill="#1A1918" sketch:type="MSShapeGroup" mask="url(#mask-2)"></path>
            <path d="M41.5986555,32.0401684 L38.4503529,34.9648148 L39.6489748,36.2608754 L42.5333445,33.5828956 L43.5156303,34.6445455 L40.6326387,37.3225253 L42.0911597,38.8993266 L45.3972773,35.8315825 L46.4081681,36.9245791 L41.8557983,41.1507071 L36.1918319,35.0302357 L40.5877647,30.9471717 L41.5986555,32.0401684" id="Fill-19" fill="#1A1918" sketch:type="MSShapeGroup" mask="url(#mask-2)"></path>
            <path d="M42.911563,28.9915152 L44.2707563,27.9680135 L46.3360672,30.7222896 L46.8489748,26.0286869 L48.6435294,24.6794949 L47.9673613,29.4807744 L53.7877647,31.2483502 L52.0013445,32.5921212 L47.7605378,31.2211111 L47.6013445,32.4094949 L49.2748235,34.643165 L47.9142857,35.6653199 L42.911563,28.9915152" id="Fill-20" fill="#1A1918" sketch:type="MSShapeGroup" mask="url(#mask-2)"></path>
            <path d="M55.9088403,20.2012121 L56.6584874,21.4386869 L54.511563,22.7415488 L58.0816471,28.6426263 L56.5904874,29.5475421 L53.0217815,23.6464646 L50.8762017,24.9479798 L50.126521,23.7105051 L55.9088403,20.2012121" id="Fill-21" fill="#1A1918" sketch:type="MSShapeGroup" mask="url(#mask-2)"></path>
            <path d="M63.1387899,25.8842424 L61.5891092,26.6814815 L57.7823193,19.2554209 L59.3333445,18.4595286 L63.1387899,25.8842424" id="Fill-22" fill="#1A1918" sketch:type="MSShapeGroup" mask="url(#mask-2)"></path>
            <path d="M70.6789244,21.7085185 C70.3469244,22.5480135 69.6326387,23.196734 68.5360672,23.653266 C67.438084,24.1111785 66.4748235,24.1616162 65.6462521,23.8045455 C64.5646387,23.3956902 63.7360672,22.5003367 63.161916,21.1197643 C62.5768739,19.7106061 62.526521,18.4908754 63.0108908,17.4605724 C63.3428571,16.6210438 64.0571429,15.9723569 65.1537479,15.5144444 C66.2516975,15.0578788 67.2136134,15.0074411 68.0421849,15.363165 C69.1102185,15.7474747 69.9360672,16.642862 70.5210756,18.0520202 C71.0952269,19.4325926 71.1469244,20.6509428 70.6789244,21.7085185 L70.6789244,21.7085185 Z M69.1836639,20.9480471 C69.3605378,20.3265993 69.2707563,19.5838384 68.9129412,18.7225589 C68.5564706,17.8639731 68.0952269,17.2779461 67.5292437,16.9644781 C66.961916,16.6510438 66.3632605,16.6251515 65.7306218,16.8895286 C65.0979496,17.1525589 64.6911597,17.596835 64.5088403,18.2210101 C64.326521,18.8438384 64.4136134,19.5879461 64.7714286,20.4492593 C65.1292437,21.3105724 65.5932101,21.8965993 66.1646387,22.2059596 C66.7346891,22.5166667 67.3360672,22.5398316 67.9687059,22.2754545 C68.6013445,22.0110774 69.0054454,21.5694949 69.1836639,20.9480471 L69.1836639,20.9480471 Z" id="Fill-23" fill="#1A1918" sketch:type="MSShapeGroup" mask="url(#mask-2)"></path>
            <path d="M71.4829916,13.3584175 L73.2245042,12.8473737 L77.9591933,17.4850842 L76.3387899,11.9342761 L77.888437,11.4804377 L80.2285714,19.4911785 L78.5673613,19.9790909 L73.7224538,15.26367 L75.3727731,20.9153535 L73.8231261,21.3691582 L71.4829916,13.3584175" id="Fill-24" fill="#1A1918" sketch:type="MSShapeGroup" mask="url(#mask-2)"></path>
            <path d="M87.0421849,11.1670034 L82.8204034,11.9492593 L83.1401345,13.6868687 L87.0081681,12.9713805 L87.2707563,14.3955556 L83.4027227,15.1110438 L83.7918319,17.2261616 L88.2245042,16.4057239 L88.4938824,17.8721212 L82.3904874,19.0005724 L80.8775462,10.7922222 L86.7727731,9.70195286 L87.0421849,11.1670034" id="Fill-25" fill="#1A1918" sketch:type="MSShapeGroup" mask="url(#mask-2)"></path>
            <path d="M89.7278992,9.29989899 L91.5374118,9.15407407 L95.2353613,14.6572054 L94.7714286,8.89242424 L96.3823193,8.76296296 L97.0503529,17.083064 L95.3251765,17.2220539 L91.5360672,11.6221886 L92.0081681,17.4905387 L90.3972773,17.62 L89.7278992,9.29989899" id="Fill-26" fill="#1A1918" sketch:type="MSShapeGroup" mask="url(#mask-2)"></path>
            <path d="M104.756471,17.1975421 L103.014958,17.1225589 L103.371429,8.78340067 L105.112941,8.85835017 L104.756471,17.1975421" id="Fill-27" fill="#1A1918" sketch:type="MSShapeGroup" mask="url(#mask-2)"></path>
            <path d="M107.904773,8.99191919 L109.707496,9.20858586 L112.242185,15.3386195 L112.929244,9.5956229 L114.533345,9.78781145 L113.541513,18.0765657 L111.823126,17.8693939 L109.216336,11.6276094 L108.518353,17.4728283 L106.914286,17.2806734 L107.904773,8.99191919" id="Fill-28" fill="#1A1918" sketch:type="MSShapeGroup" mask="url(#mask-2)"></path>
            <path d="M117.465311,10.3465657 L123.234017,11.6303367 L122.921076,13.0436027 L118.853076,12.1386869 L118.434017,14.030303 L122.002723,14.8248485 L121.688437,16.2380808 L118.119731,15.443569 L117.363261,18.853367 L115.66121,18.4731313 L117.465311,10.3465657" id="Fill-29" fill="#1A1918" sketch:type="MSShapeGroup" mask="url(#mask-2)"></path>
            <path d="M129.333345,21.4931987 C128.531966,21.9074747 127.568706,21.9265657 126.440807,21.5504377 C125.314286,21.1729293 124.553748,20.5773737 124.164639,19.7637374 C123.614958,18.7429966 123.578218,17.5218855 124.051697,16.1045455 C124.533345,14.6558586 125.295227,13.7032323 126.334689,13.2453199 C127.136067,12.8296296 128.099328,12.8119192 129.227227,13.1880808 C130.353748,13.5642088 131.114286,14.1597643 131.504773,14.9734007 C132.059866,15.9655219 132.095227,17.1852525 131.612235,18.6325926 C131.140134,20.0513131 130.379597,21.0039394 129.333345,21.4931987 L129.333345,21.4931987 Z M128.704773,19.9354545 C129.244908,19.5838384 129.663933,18.9651178 129.959193,18.0792929 C130.251697,17.1975421 130.289782,16.4520539 130.068034,15.842862 C129.846252,15.23367 129.410891,14.8207407 128.761916,14.6026936 C128.111563,14.3859933 127.514286,14.4527946 126.965983,14.8030303 C126.420403,15.153266 125.998655,15.7720202 125.704773,16.6564983 C125.409513,17.5423232 125.375496,18.2891582 125.601345,18.8983502 C125.828571,19.5075421 126.268034,19.9204714 126.917008,20.1371717 C127.567361,20.3552189 128.161916,20.2870707 128.704773,19.9354545 L128.704773,19.9354545 Z" id="Fill-30" fill="#1A1918" sketch:type="MSShapeGroup" mask="url(#mask-2)"></path>
            <path d="M140.176874,18.1678788 C140.4,18.4158923 140.555092,18.7020875 140.640807,19.0250842 C140.712941,19.2894949 140.741513,19.5606734 140.727899,19.8373401 C140.714286,20.1126263 140.638084,20.3988215 140.50205,20.6973064 C140.336067,21.0570707 140.081647,21.3678114 139.741513,21.6308418 C139.4,21.8938721 138.987765,22.0015152 138.504773,21.9524579 C138.787765,22.2550168 138.941513,22.5684512 138.967361,22.8941751 C138.991832,23.2212458 138.881647,23.6505387 138.636739,24.1820539 L138.401345,24.6917508 C138.240807,25.0392929 138.146924,25.2805051 138.117008,25.4168013 C138.066655,25.6321212 138.096605,25.820202 138.204067,25.9823569 L138.117008,26.173165 L136.382319,25.3704377 C136.413613,25.1810101 136.442185,25.0297306 136.469378,24.916633 C136.527899,24.6849495 136.605445,24.4573401 136.706118,24.2324916 L137.020403,23.5224579 C137.236739,23.0345455 137.303395,22.6734007 137.216336,22.4376431 C137.130622,22.2018519 136.866655,21.9824579 136.424504,21.7780135 L134.877546,21.0611785 L133.504773,24.0389562 L131.960538,23.323468 L135.455798,15.7461279 L139.073479,17.4210438 C139.586387,17.6704377 139.953748,17.9198316 140.176874,18.1678788 L140.176874,18.1678788 Z M136.39321,17.7753872 L135.455798,19.8046465 L137.160538,20.5923569 C137.499328,20.7504377 137.771429,20.8267677 137.978218,20.8226599 C138.344202,20.8185859 138.624504,20.603266 138.819059,20.1794276 C139.031294,19.7215152 139.027227,19.346734 138.810891,19.0550842 C138.688437,18.8915488 138.465311,18.7348148 138.140134,18.5835354 L136.39321,17.7753872 L136.39321,17.7753872 Z" id="Fill-31" fill="#1A1918" sketch:type="MSShapeGroup" mask="url(#mask-2)"></path>
            <path d="M148.937412,22.8314815 L151.069378,24.1302694 L146.744202,31.2647138 L145.364639,30.4238384 L148.289782,25.5980471 C148.374151,25.460404 148.493882,25.2668687 148.64763,25.0188552 C148.802723,24.7694276 148.921076,24.5786532 149.004067,24.4423569 L144.027227,29.6115825 L142.585042,28.7339394 L144.877546,21.933367 C144.795933,22.0683165 144.680269,22.2618182 144.530622,22.5153199 C144.383664,22.7674411 144.266655,22.9623232 144.183664,23.1013468 L141.257143,27.9257576 L139.877546,27.0862626 L144.201345,19.9518182 L146.359193,21.2642424 L144.251697,27.66 L148.937412,22.8314815" id="Fill-32" fill="#1A1918" sketch:type="MSShapeGroup" mask="url(#mask-2)"></path>
            <path d="M155.394555,27.3206734 L156.963261,28.53633 L154.186387,36.9381818 L152.696605,35.7838721 L153.30884,34.1048485 L150.881647,32.2241414 L149.4,33.2285522 L147.948303,32.1042088 L155.394555,27.3206734 L155.394555,27.3206734 Z M152.142857,31.3710101 L153.827227,32.6752525 L155.005445,29.433064 L152.142857,31.3710101 L152.142857,31.3710101 Z" id="Fill-33" fill="#1A1918" sketch:type="MSShapeGroup" mask="url(#mask-2)"></path>
            <path d="M164.910218,35.5549158 L163.925176,36.6165657 L162.088437,34.9061953 L157.401345,39.959596 L156.122454,38.7712121 L160.810891,33.7178114 L158.974151,32.0060943 L159.957815,30.9457912 L164.910218,35.5549158" id="Fill-34" fill="#1A1918" sketch:type="MSShapeGroup" mask="url(#mask-2)"></path>
            <path d="M161.424504,44.0658249 L160.234017,42.790202 L166.321076,37.0894613 L167.511563,38.3650842 L161.424504,44.0658249" id="Fill-35" fill="#1A1918" sketch:type="MSShapeGroup" mask="url(#mask-2)"></path>
            <path d="M167.568706,50.2885185 C166.670756,50.1972054 165.853076,49.6847811 165.11563,48.7512458 C164.378218,47.8177104 164.069378,46.9032323 164.186387,46.0078451 C164.285714,44.8521886 164.921076,43.8109764 166.092504,42.882862 C167.287059,41.9356902 168.444908,41.556835 169.565983,41.7435354 C170.462588,41.8348485 171.281647,42.3472727 172.019059,43.2808081 C172.756471,44.2143771 173.065311,45.1288215 172.948303,46.0242088 C172.870756,47.1580808 172.234017,48.1979461 171.039462,49.1451178 C169.868034,50.0731987 168.711563,50.4547811 167.568706,50.2885185 L167.568706,50.2885185 Z M167.892504,48.6408418 C168.53879,48.643569 169.227227,48.3546465 169.957815,47.7754545 C170.68437,47.1989899 171.122454,46.5952525 171.270756,45.9642424 C171.417681,45.3318855 171.280269,44.7485859 170.85442,44.2102694 C170.429916,43.6719529 169.892504,43.3993939 169.243529,43.3925926 C168.594555,43.387138 167.904773,43.6733333 167.174151,44.2525253 C166.443529,44.8317172 166.00679,45.4381818 165.863933,46.0719192 C165.721076,46.7070034 165.86121,47.2929966 166.287059,47.8299663 C166.711563,48.3682828 167.24763,48.6381145 167.892504,48.6408418 L167.892504,48.6408418 Z" id="Fill-36" fill="#1A1918" sketch:type="MSShapeGroup" mask="url(#mask-2)"></path>
            <path d="M175.813613,48.8043771 L176.774151,50.3457576 L173.598655,56.166431 L178.493882,53.1014141 L179.349647,54.4751515 L172.282992,58.8975421 L171.365983,57.427037 L174.586387,51.4810101 L169.601345,54.6005387 L168.74558,53.2281481 L175.813613,48.8043771" id="Fill-37" fill="#1A1918" sketch:type="MSShapeGroup" mask="url(#mask-2)"></path>
            <path d="M176.182319,60.8068687 C175.865311,61.0208418 175.655798,61.2402694 175.556471,61.4623906 C175.375496,61.8671717 175.435361,62.379596 175.740134,62.9996633 C175.921076,63.3703704 176.10884,63.6524916 176.303395,63.843266 C176.670756,64.2057912 177.068034,64.2848485 177.487059,64.0790572 C177.733345,63.9577441 177.869378,63.7574074 177.899328,63.4753199 C177.923798,63.1945791 177.873479,62.796633 177.74558,62.2787542 L177.530622,61.3928956 C177.321076,60.5234007 177.244908,59.8855892 177.30205,59.4808418 C177.394555,58.7994276 177.80679,58.2788215 178.53879,57.9190236 C179.205445,57.5919529 179.880269,57.5660606 180.561916,57.8413468 C181.244908,58.116633 181.819059,58.7312795 182.285714,59.686633 C182.676202,60.4825253 182.798655,61.2647811 182.657143,62.0320539 C182.514286,62.7993266 182.05442,63.3921886 181.272101,63.8091919 L180.533345,62.2978114 C180.970084,62.0511448 181.191832,61.6940741 181.2,61.2293603 C181.202723,60.9213468 181.114286,60.5820202 180.934689,60.2140404 C180.734689,59.8051852 180.493882,59.5176431 180.212235,59.3541077 C179.930622,59.1891919 179.644908,59.176936 179.355092,59.3200337 C179.089782,59.4508418 178.948303,59.6689226 178.936067,59.9741751 C178.923798,60.1717845 178.982319,60.5520202 179.111563,61.1121549 L179.442185,62.5662963 C179.586387,63.2041077 179.617681,63.7219865 179.530622,64.1199327 C179.397277,64.7373064 179,65.210202 178.336067,65.5359259 C177.65442,65.869798 176.959193,65.8848148 176.253076,65.5795286 C175.544202,65.2742424 174.956471,64.6405387 174.487059,63.6811111 C174.008168,62.6998653 173.851697,61.8194613 174.021782,61.0399327 C174.190487,60.2590236 174.665311,59.6784512 175.442185,59.2954882 L176.182319,60.8068687" id="Fill-38" fill="#1A1918" sketch:type="MSShapeGroup" mask="url(#mask-2)"></path>
            <path d="M186.753748,70.9763636 L185.401345,71.4874074 L184.514286,69.136532 L178.070756,71.5719192 L177.455798,69.9378788 L183.899328,67.5024916 L183.014958,65.1515825 L184.367361,64.6405387 L186.753748,70.9763636" id="Fill-39" fill="#1A1918" sketch:type="MSShapeGroup" mask="url(#mask-2)"></path>
            <path d="M187.591832,79.3905051 L186.462588,75.2420202 L184.760538,75.7053872 L185.794555,79.50633 L184.398655,79.8879125 L183.364639,76.0869697 L181.293882,76.6525589 L182.478924,81.0081818 L181.042185,81.4006734 L179.410891,75.4014815 L187.450353,73.2059596 L189.027227,78.9993603 L187.591832,79.3905051" id="Fill-40" fill="#1A1918" sketch:type="MSShapeGroup" mask="url(#mask-2)"></path>
            <path d="M189.681647,81.9580808 L189.959193,83.639798 L186.567361,84.2013131 L190.487059,86.8261279 L190.853076,89.0434343 L186.912941,86.2251178 L182.659866,90.5793603 L182.295227,88.3729293 L185.466655,85.2384175 L184.488437,84.5460943 L181.73879,85.0026599 L181.46121,83.3222559 L189.681647,81.9580808" id="Fill-41" fill="#1A1918" sketch:type="MSShapeGroup" mask="url(#mask-2)"></path>
            <path d="M191.096605,91.5279125 L191.201345,93.3418182 L185.625849,96.9219865 L191.390487,96.586734 L191.48437,98.2016835 L183.165983,98.6868687 L183.065311,96.9560606 L188.740134,93.2859596 L182.870756,93.6280135 L182.778218,92.0117172 L191.096605,91.5279125" id="Fill-42" fill="#1A1918" sketch:type="MSShapeGroup" mask="url(#mask-2)"></path>
            <path d="M183.078924,102.490539 L183.110218,100.744747 L191.442185,100.894646 L191.409513,102.641818 L183.078924,102.490539" id="Fill-43" fill="#1A1918" sketch:type="MSShapeGroup" mask="url(#mask-2)"></path>
            <path d="M191.342857,105.483333 L191.182319,107.180067 L187.759193,106.854343 L190.878924,110.394983 L190.666655,112.634108 L187.576874,108.899966 L182.353748,112.020842 L182.564639,109.793973 L186.429916,107.576633 L185.66121,106.656734 L182.885714,106.393704 L183.046252,104.69697 L191.342857,105.483333" id="Fill-44" fill="#1A1918" sketch:type="MSShapeGroup" mask="url(#mask-2)"></path>
            <path d="M197.15646,100.057882 C197.15646,153.652718 153.77959,197.102613 100.273468,197.102613 C46.7687069,197.102613 3.39183669,153.652718 3.39183669,100.057882 C3.39183669,46.4616821 46.7687069,3.01178683 100.273468,3.01178683 C153.77959,3.01178683 197.15646,46.4616821 197.15646,100.057882 L197.15646,100.057882 Z" id="Stroke-45" stroke="#1A1918" stroke-width="3" sketch:type="MSShapeGroup" mask="url(#mask-2)"></path>
            <path d="M17.110205,122.735455 C16.9442185,123.02165 16.688437,123.209731 16.3387765,123.302391 C15.9904773,123.392323 15.6734689,123.355556 15.3850353,123.187912 C15.0965983,123.02165 14.9074824,122.762694 14.8163261,122.413805 C14.7238084,122.066296 14.7632639,121.747407 14.9319731,121.459832 C15.1020403,121.17229 15.3605445,120.984209 15.7088437,120.891549 C16.0571429,120.800236 16.3727899,120.838384 16.6571429,121.006027 C16.9414958,121.175017 17.1306118,121.433939 17.2217681,121.781481 C17.3129244,122.130337 17.2748303,122.449259 17.110205,122.735455" id="Fill-46" fill="#1A1918" sketch:type="MSShapeGroup" mask="url(#mask-2)"></path>
            <path d="M21.6013613,128.951347 C22.4843529,129.319293 23.1183664,129.984377 23.5034017,130.945152 C24.0163261,132.230303 23.9659866,133.343771 23.3510218,134.280034 C23.0013613,134.80064 22.5904773,135.171313 22.1183664,135.388013 L21.4707496,133.766229 C21.8,133.516835 22.0272101,133.272896 22.1523798,133.037104 C22.3727899,132.615993 22.3714286,132.124007 22.1469378,131.561178 C21.9170084,130.988788 21.500679,130.631717 20.895237,130.489966 C20.289795,130.349596 19.5551025,130.453199 18.689795,130.800707 C17.8244908,131.146869 17.2448975,131.580236 16.9523798,132.100842 C16.6612235,132.621448 16.6217681,133.148855 16.8353748,133.684478 C17.0557815,134.23367 17.4081647,134.577104 17.8965983,134.717508 C18.1605445,134.795185 18.5129244,134.807441 18.9564639,134.751549 L19.6040807,136.371987 C18.7074824,136.572323 17.8829916,136.491919 17.1292504,136.136195 C16.3755092,135.777778 15.8204067,135.154949 15.4653076,134.267744 C15.0258487,133.167946 15.0367361,132.162189 15.4965983,131.24771 C15.9605445,130.331886 16.8149647,129.624579 18.0598655,129.124411 C19.4068034,128.586094 20.5863933,128.527508 21.6013613,128.951347" id="Fill-47" fill="#1A1918" sketch:type="MSShapeGroup" mask="url(#mask-2)"></path>
            <path d="M18.093879,139.854007 L25.4653076,135.960404 L26.2789109,137.505859 L23.4761916,138.985892 L24.9632639,141.811044 L27.7659866,140.33101 L28.5782319,141.875084 L21.2068034,145.76734 L20.394558,144.223266 L23.6857143,142.485657 L22.1972773,139.660505 L18.9074824,141.398114 L18.093879,139.854007" id="Fill-48" fill="#1A1918" sketch:type="MSShapeGroup" mask="url(#mask-2)"></path>
            <path d="M30.9551025,145.613367 L32.0585042,147.263737 L26.7687059,154.351852 L25.7197277,152.784579 L26.8312941,151.383603 L25.1238084,148.832357 L23.4,149.314815 L22.3795933,147.788451 L30.9551025,145.613367 L30.9551025,145.613367 Z M26.5904773,148.422155 L27.7755092,150.193838 L29.9183664,147.492694 L26.5904773,148.422155 L26.5904773,148.422155 Z" id="Fill-49" fill="#1A1918" sketch:type="MSShapeGroup" mask="url(#mask-2)"></path>
            <path d="M34.6122353,150.839832 L35.7183529,152.187677 L30.4312941,156.541919 L33.0517008,159.73367 L31.9020403,160.679495 L28.1755092,156.139899 L34.6122353,150.839832" id="Fill-50" fill="#1A1918" sketch:type="MSShapeGroup" mask="url(#mask-2)"></path>
            <path d="M43.3237983,160.460067 L45.103395,162.21404 L39.2598655,168.165556 L38.1074958,167.030303 L42.0612101,163.005859 C42.1741513,162.89 42.3346891,162.727845 42.5428571,162.523401 C42.7496471,162.317609 42.9088403,162.156801 43.0204034,162.043704 L36.9932101,165.931852 L35.7891092,164.746195 L39.5795966,158.652963 C39.4680336,158.766061 39.311563,158.928249 39.1088403,159.140842 C38.9074958,159.352088 38.7496471,159.514276 38.6353613,159.630101 L34.6829916,163.654545 L33.5319731,162.520673 L39.3741513,156.570539 L41.1741513,158.343603 L37.6584874,164.085219 L43.3237983,160.460067" id="Fill-51" fill="#1A1918" sketch:type="MSShapeGroup" mask="url(#mask-2)"></path>
            <path d="M50.4476303,168.401313 L47.0789244,165.734242 L45.9836639,167.121616 L49.0707563,169.563805 L48.1741513,170.700404 L45.088437,168.258215 L43.7578151,169.945421 L47.2938824,172.7433 L46.3714286,173.912626 L41.5006723,170.058519 L46.6666555,163.510101 L51.370084,167.231987 L50.4476303,168.401313" id="Fill-52" fill="#1A1918" sketch:type="MSShapeGroup" mask="url(#mask-2)"></path>
            <path d="M57.4217815,171.494949 C57.6081681,171.771616 57.7237983,172.075522 57.7646387,172.4067 C57.8,172.679259 57.7932101,172.951818 57.7415126,173.22303 C57.6897815,173.494242 57.5768739,173.768148 57.4,174.044815 C57.1877647,174.378721 56.8938824,174.651279 56.5210756,174.86798 C56.1469244,175.081919 55.7237983,175.132357 55.2516975,175.017879 C55.4911597,175.354512 55.6013445,175.687037 55.5823193,176.012761 C55.5632605,176.339832 55.3959328,176.750034 55.0802689,177.244747 L54.7795966,177.717643 C54.5727731,178.039293 54.4476303,178.266869 54.3986555,178.39633 C54.3210756,178.603502 54.3237983,178.794276 54.4095126,178.968721 L54.296605,179.145892 L52.6870588,178.115589 C52.7428571,177.931616 52.7918319,177.785791 52.8353613,177.678114 C52.9224538,177.455993 53.0312941,177.240673 53.1605378,177.030774 L53.570084,176.371178 C53.8503529,175.91734 53.9632605,175.568451 53.9102185,175.324512 C53.8557983,175.077845 53.6258487,174.822997 53.214958,174.561313 L51.7795966,173.641414 L50.014958,176.403872 L48.5823193,175.488047 L53.0707563,168.454478 L56.4285714,170.605017 C56.903395,170.921212 57.2326387,171.218283 57.4217815,171.494949 L57.4217815,171.494949 Z M53.7251765,170.59138 L52.5224538,172.476195 L54.1047731,173.488788 C54.4176807,173.689125 54.6775462,173.802222 54.8829916,173.826768 C55.2462521,173.87037 55.5537479,173.697306 55.8040672,173.303434 C56.0748235,172.879596 56.1224538,172.507542 55.9483025,172.19 C55.8489748,172.010101 55.6489748,171.823401 55.3469244,171.631246 L53.7251765,170.59138 L53.7251765,170.59138 Z" id="Fill-53" fill="#1A1918" sketch:type="MSShapeGroup" mask="url(#mask-2)"></path>
            <path d="M58.9932101,178.765657 C58.8693782,179.128182 58.8340168,179.426633 58.8870588,179.665152 C58.9863866,180.099899 59.3428571,180.470572 59.9564706,180.78266 C60.3251765,180.96936 60.6435294,181.081145 60.9142857,181.117912 C61.4272269,181.184714 61.7891092,181.008889 62.0013445,180.591886 C62.1251765,180.346566 62.1142857,180.103973 61.9673613,179.86138 C61.8190588,179.621549 61.5387899,179.335354 61.126521,178.998721 L60.4231261,178.420875 C59.7319664,177.852559 59.288437,177.389226 59.0911597,177.030774 C58.7550924,176.431145 58.7714286,175.767441 59.1387899,175.039697 C59.4748235,174.374613 59.9986555,173.948047 60.7102185,173.755892 C61.4204034,173.566465 62.2476303,173.709562 63.1945546,174.191987 C63.9836639,174.591313 64.5523697,175.141886 64.9006723,175.841044 C65.2476303,176.538788 65.2353613,177.291077 64.8625882,178.093805 L63.3646387,177.333333 C63.5632605,176.872694 63.526521,176.45431 63.2544202,176.078148 C63.0707563,175.830135 62.7972773,175.613434 62.4326387,175.428081 C62.0272269,175.220943 61.6625882,175.137811 61.3387899,175.174613 C61.014958,175.214141 60.7795966,175.377677 60.6340168,175.665219 C60.4993277,175.930976 60.5183529,176.188552 60.6911597,176.440673 C60.8013445,176.605589 61.0762017,176.872694 61.5156303,177.244747 L62.6530756,178.206902 C63.1523697,178.626667 63.4870588,179.023232 63.6584874,179.392593 C63.9237983,179.96633 63.888437,180.582323 63.5537479,181.2433 C63.2108908,181.92064 62.6653109,182.351279 61.9170084,182.535286 C61.1687059,182.716532 60.3183529,182.566633 59.3659832,182.081448 C58.3932101,181.588114 57.7401345,180.978923 57.4067899,180.253872 C57.0748235,179.528855 57.103395,178.779293 57.4952269,178.003838 L58.9932101,178.765657" id="Fill-54" fill="#1A1918" sketch:type="MSShapeGroup" mask="url(#mask-2)"></path>
            <path d="M76.9959328,180.009933 L76.5278992,181.379596 L74.1550924,180.564613 L71.9210756,187.089865 L70.2721008,186.524276 L72.5061176,179.997677 L70.1333445,179.184074 L70.6027227,177.814411 L76.9959328,180.009933" id="Fill-55" fill="#1A1918" sketch:type="MSShapeGroup" mask="url(#mask-2)"></path>
            <path d="M83.8802689,183.248047 L79.7047731,182.242256 L79.2925042,183.960808 L83.1170084,184.880707 L82.7782185,186.289899 L78.9550924,185.36862 L78.4530756,187.459192 L82.8340168,188.51404 L82.4857143,189.964074 L76.4503529,188.508586 L78.4,180.394276 L84.2285714,181.799327 L83.8802689,183.248047" id="Fill-56" fill="#1A1918" sketch:type="MSShapeGroup" mask="url(#mask-2)"></path>
            <path d="M86.273479,182.191852 L87.9578151,182.420808 L87.496605,185.833333 L91.1537479,182.852828 L93.3768739,183.155354 L89.5292437,186.09771 L92.4340168,191.449562 L90.2204034,191.149764 L88.161916,187.192088 L87.214958,187.925286 L86.8408067,190.691852 L85.1550924,190.462896 L86.273479,182.191852" id="Fill-57" fill="#1A1918" sketch:type="MSShapeGroup" mask="url(#mask-2)"></path>
            <path d="M94.8870588,183.24532 L96.7006723,183.298451 L99.7741513,189.175017 L99.9442017,183.393872 L101.560538,183.442929 L101.314286,191.786195 L99.5823193,191.735758 L96.429916,185.751549 L96.2557983,191.636296 L94.6421849,191.588586 L94.8870588,183.24532" id="Fill-58" fill="#1A1918" sketch:type="MSShapeGroup" mask="url(#mask-2)"></path>
            <path d="M105.666655,191.59266 L103.925176,191.671717 L103.546924,183.333906 L105.288437,183.253502 L105.666655,191.59266" id="Fill-59" fill="#1A1918" sketch:type="MSShapeGroup" mask="url(#mask-2)"></path>
            <path d="M109.323798,188.741616 C109.420403,189.11367 109.556471,189.382155 109.731966,189.549798 C110.05442,189.857778 110.556471,189.970909 111.240807,189.889125 C111.651697,189.841414 111.978218,189.758283 112.223126,189.639731 C112.687059,189.412121 112.893882,189.064613 112.838084,188.598519 C112.80679,188.32596 112.663933,188.129697 112.408168,188.008418 C112.15237,187.889865 111.760538,187.806734 111.231294,187.756296 L110.325176,187.663636 C109.435361,187.572323 108.810891,187.430572 108.448975,187.242492 C107.838084,186.927677 107.48437,186.366195 107.390487,185.55532 C107.303395,184.815286 107.504773,184.170673 107.990487,183.618721 C108.477546,183.06404 109.24763,182.726061 110.300672,182.603401 C111.180941,182.499832 111.957815,182.64431 112.632639,183.034074 C113.307496,183.423838 113.711563,184.057576 113.844908,184.932492 L112.176874,185.128754 C112.088437,184.63404 111.827227,184.305589 111.39321,184.143434 C111.103395,184.037104 110.755092,184.008485 110.348303,184.056195 C109.896605,184.10936 109.546924,184.241549 109.29795,184.451414 C109.048975,184.66266 108.942857,184.928418 108.980941,185.250034 C109.014958,185.545791 109.174151,185.750202 109.457143,185.86468 C109.639462,185.942357 110.014958,186.011852 110.586387,186.077273 L112.065311,186.24899 C112.714286,186.323939 113.212235,186.468418 113.557815,186.68101 C114.095227,187.013535 114.40679,187.545051 114.492504,188.280976 C114.580941,189.035993 114.363261,189.69697 113.840807,190.263906 C113.317008,190.829495 112.525176,191.175657 111.465311,191.299663 C110.382319,191.426397 109.500672,191.280572 108.823126,190.859461 C108.14558,190.439731 107.756471,189.799192 107.655798,188.937879 L109.323798,188.741616" id="Fill-60" fill="#1A1918" sketch:type="MSShapeGroup" mask="url(#mask-2)"></path>
            <path d="M115.465311,182.118249 L117.126521,181.750269 L117.865311,185.115118 L120.274824,181.057946 L122.468034,180.574141 L119.865311,184.66266 L124.429916,188.688485 L122.248975,189.169562 L118.957815,186.161785 L118.318353,187.177104 L118.917008,189.904108 L117.257143,190.26936 L115.465311,182.118249" id="Fill-61" fill="#1A1918" sketch:type="MSShapeGroup" mask="url(#mask-2)"></path>
            <path d="M126.175496,179.389865 L128.058487,178.76431 L133.470756,185.759731 L131.682992,186.353939 L130.632639,184.909327 L127.721076,185.876936 L127.726521,187.670438 L125.985042,188.24963 L126.175496,179.389865 L126.175496,179.389865 Z M127.717008,184.3533 L129.736067,183.680067 L127.707496,180.891684 L127.717008,184.3533 L127.717008,184.3533 Z" id="Fill-62" fill="#1A1918" sketch:type="MSShapeGroup" mask="url(#mask-2)"></path>
            <path d="M139.004067,183.408855 L135.265311,175.948687 L136.823126,175.165051 L138.243529,178.001111 L141.093882,176.568788 L139.673479,173.732727 L141.231294,172.949091 L144.970084,180.409259 L143.410891,181.192896 L141.742857,177.862121 L138.892504,179.295825 L140.561916,182.625219 L139.004067,183.408855" id="Fill-63" fill="#1A1918" sketch:type="MSShapeGroup" mask="url(#mask-2)"></path>
            <path d="M143.246252,168.976431 L144.495227,168.168283 L145.223126,169.29532 L143.972773,170.104848 L143.246252,168.976431 L143.246252,168.976431 Z M152.510218,174.828451 C152.334689,175.715657 151.74558,176.480202 150.748303,177.127542 C149.749647,177.772155 148.812235,177.995657 147.933345,177.792593 C146.795933,177.582727 145.820403,176.850875 145.009513,175.594343 C144.183664,174.311919 143.91563,173.120808 144.209513,172.02101 C144.385042,171.135152 144.972773,170.369259 145.970084,169.723266 C146.970084,169.077273 147.907496,168.856498 148.785042,169.058215 C149.904773,169.244916 150.878924,169.978114 151.704773,171.259192 C152.51563,172.515724 152.783664,173.705455 152.510218,174.828451 L152.510218,174.828451 Z M145.156471,167.740337 L146.405445,166.930808 L147.133345,168.059259 L145.88437,168.867407 L145.156471,167.740337 L145.156471,167.740337 Z M150.903395,174.348721 C150.967361,173.704108 150.746924,172.991347 150.240807,172.206364 C149.737412,171.426801 149.179597,170.932088 148.565983,170.724949 C147.95237,170.516431 147.359193,170.599562 146.783664,170.971616 C146.208168,171.345051 145.887059,171.854747 145.817681,172.500707 C145.749647,173.148081 145.968706,173.862189 146.473479,174.647172 C146.979597,175.430808 147.540134,175.922795 148.157815,176.125859 C148.774151,176.328923 149.370084,176.244444 149.94558,175.872391 C150.521076,175.500337 150.839462,174.990606 150.903395,174.348721 L150.903395,174.348721 Z" id="Fill-64" fill="#1A1918" sketch:type="MSShapeGroup" mask="url(#mask-2)"></path>
            <path d="M156.791832,165.225926 C156.327899,164.868855 155.827227,164.765286 155.289782,164.913805 C154.989109,164.998316 154.703395,165.152323 154.434017,165.373098 C153.917008,165.796936 153.651697,166.342088 153.638084,167.005758 C153.624504,167.668114 153.93879,168.391785 154.579597,169.175421 C155.225849,169.964478 155.862588,170.374714 156.49116,170.406061 C157.118353,170.438754 157.662588,170.267037 158.122454,169.888182 C158.572773,169.520202 158.835361,169.086835 158.912941,168.593468 C158.987765,168.100135 158.889782,167.61633 158.614958,167.144781 L157.114286,168.375421 L156.238084,167.305589 L158.918353,165.104613 L161.748303,168.563502 L160.859866,169.292593 L160.076202,168.586667 C160.066655,169.104545 160.009513,169.510673 159.906118,169.805051 C159.727899,170.314747 159.382319,170.782189 158.863933,171.207407 C158.010891,171.909259 157.069378,172.187273 156.042185,172.042795 C154.989109,171.916061 154.040807,171.338215 153.198655,170.307912 C152.34558,169.265354 151.948303,168.195522 152.00679,167.097071 C152.065311,166 152.565983,165.062357 153.506118,164.28963 C154.323798,163.619125 155.149647,163.286599 155.983664,163.294781 C156.820403,163.302963 157.526521,163.586431 158.106118,164.146532 L156.791832,165.225926" id="Fill-65" fill="#1A1918" sketch:type="MSShapeGroup" mask="url(#mask-2)"></path>
            <path d="M162.93879,163.848081 C163.243529,164.077037 163.519731,164.201044 163.760538,164.221515 C164.202723,164.259663 164.665311,164.032054 165.149647,163.541448 C165.440807,163.247071 165.642185,162.977239 165.759193,162.730572 C165.979597,162.261751 165.922454,161.862424 165.590487,161.532626 C165.394555,161.340471 165.160538,161.277778 164.88437,161.343199 C164.612235,161.411347 164.25442,161.591246 163.808168,161.882862 L163.046252,162.378956 C162.293882,162.864108 161.718353,163.147576 161.318353,163.226633 C160.644908,163.364276 160.019059,163.146229 159.439462,162.573838 C158.910218,162.050505 158.662588,161.420875 158.69795,160.684949 C158.731966,159.949024 159.121076,159.203535 159.866655,158.447172 C160.488437,157.814815 161.185042,157.438687 161.953748,157.321481 C162.725176,157.201549 163.435361,157.442761 164.085714,158.042424 L162.906118,159.240337 C162.529244,158.910539 162.119731,158.817845 161.680269,158.965051 C161.387765,159.063165 161.09795,159.258047 160.809513,159.549697 C160.49116,159.874074 160.299328,160.197037 160.236739,160.51596 C160.175496,160.837576 160.258487,161.111515 160.488437,161.337744 C160.700672,161.546263 160.95237,161.607576 161.244908,161.51899 C161.434017,161.465859 161.772773,161.284579 162.258487,160.977946 L163.521076,160.184781 C164.073479,159.837273 164.551025,159.638283 164.953748,159.587879 C165.579597,159.508822 166.156471,159.729596 166.682992,160.250202 C167.223126,160.784444 167.465311,161.434512 167.412235,162.205859 C167.357815,162.974512 166.955092,163.740404 166.205445,164.500875 C165.440807,165.279057 164.66121,165.716532 163.869378,165.8133 C163.078924,165.910067 162.375496,165.655219 161.759193,165.046027 L162.93879,163.848081" id="Fill-66" fill="#1A1918" sketch:type="MSShapeGroup" mask="url(#mask-2)"></path>
            <path d="M163.591832,154.830202 L164.658487,153.501448 L167.337412,155.660168 L166.678924,150.984276 L168.085714,149.23303 L168.614958,154.053401 L174.689782,154.32596 L173.289782,156.071751 L168.843529,155.79101 L168.979597,156.983502 L171.15237,158.733367 L170.087059,160.059394 L163.591832,154.830202" id="Fill-67" fill="#1A1918" sketch:type="MSShapeGroup" mask="url(#mask-2)"></path>
            <path d="M178.797277,146.675017 C179.002723,147.555387 178.785042,148.495758 178.144202,149.497441 C177.503395,150.500471 176.740134,151.090572 175.857143,151.270471 C174.734689,151.552593 173.544202,151.289562 172.287059,150.482761 C171.005445,149.659596 170.268034,148.686532 170.081647,147.562222 C169.874824,146.683165 170.093882,145.742828 170.734689,144.739764 C171.375496,143.738081 172.13879,143.146633 173.021782,142.966734 C174.118353,142.672357 175.307496,142.936734 176.589109,143.759899 C177.846252,144.5667 178.582319,145.538384 178.797277,146.675017 L178.797277,146.675017 Z M177.136067,146.903973 C176.929244,146.292054 176.432639,145.734646 175.648975,145.230404 C174.866655,144.727508 174.155092,144.509461 173.510218,144.574882 C172.866655,144.64165 172.360538,144.961919 171.990487,145.539764 C171.621782,146.117609 171.53879,146.714512 171.742857,147.330539 C171.948303,147.949259 172.443529,148.509394 173.227227,149.012256 C174.010891,149.516498 174.726521,149.731852 175.371429,149.662323 C176.017681,149.591481 176.523798,149.265758 176.895227,148.689259 C177.263933,148.111448 177.34558,147.515859 177.136067,146.903973 L177.136067,146.903973 Z" id="Fill-68" fill="#1A1918" sketch:type="MSShapeGroup" mask="url(#mask-2)"></path>
            <path d="M173.929244,139.928956 L174.717008,138.371246 L180.820403,141.475791 L182.687059,137.792054 L184.014958,138.466667 L181.359193,143.706734 L173.929244,139.928956" id="Fill-69" fill="#1A1918" sketch:type="MSShapeGroup" mask="url(#mask-2)"></path>
            <path d="M178.104773,131.020135 L178.827227,129.168013 L187.657143,129.469226 L186.971429,131.225926 L185.189109,131.112795 L184.073479,133.974747 L185.45442,135.116801 L184.785042,136.828519 L178.104773,131.020135 L178.104773,131.020135 Z M182.900672,133.00303 L183.674824,131.017407 L180.236739,130.799327 L182.900672,133.00303 L182.900672,133.00303 Z" id="Fill-70" fill="#1A1918" sketch:type="MSShapeGroup" mask="url(#mask-2)"></path>
            <path d="M184.931966,120.594444 C185.214958,120.425455 185.530622,120.385926 185.880269,120.475859 C186.228571,120.565825 186.488437,120.755253 186.658487,121.040067 C186.829916,121.326263 186.870756,121.645185 186.779597,121.994074 C186.69116,122.34431 186.50205,122.601886 186.214958,122.770875 C185.926521,122.939865 185.609513,122.978047 185.259866,122.889461 C184.911563,122.799495 184.65442,122.611448 184.488437,122.326599 C184.321076,122.040404 184.281647,121.722862 184.371429,121.373973 C184.46121,121.025084 184.648975,120.764781 184.931966,120.594444" id="Fill-71" fill="#1A1918" sketch:type="MSShapeGroup" mask="url(#mask-2)"></path>
        </g>
    </g>
</svg>